<svg xmlns="http://www.w3.org/2000/svg" viewBox="0 0 750 500"><g id="freepik--background-simple--inject-112"><g><path d="M286.1816,112.4883C383.65559,64.4945,483.91129,1.73658,597.14849,27.4189c35.1103,7.963,67.0621,27.8697,88.6608,56.811,57.7534,77.3871,53.0569,195.9204,21.6791,283.0329-4.0949,11.3685-9.2083,22.3925-15.7873,32.5468-31.8473,49.1544-85.51309,51.4702-137.2762,37.2592-43.805-12.0263-82.6145-24.3986-127.8645-12.1703-25.0633,6.7731-49.35,16.0819-74.3206,23.1665-33.9971,9.6457-69.0461,16.1986-104.4522,16.8625-93.6678,1.7565-200.6653-46.0274-208.9647-150.6306-.5378-6.7791-.6327-13.5921-.3283-20.3851,1.8712-41.7591,15.6719-83.5788,53.9252-105.2597,38.4593-21.7975,84.089-30.416,125.2278-45.876,23.3938-8.7915,46.0923-19.2381,68.534-30.2878Z" style="fill:#3A2E3D;"></path><path d="M286.1816,112.4883C383.65559,64.4945,483.91129,1.73658,597.14849,27.4189c35.1103,7.963,67.0621,27.8697,88.6608,56.811,57.7534,77.3871,53.0569,195.9204,21.6791,283.0329-4.0949,11.3685-9.2083,22.3925-15.7873,32.5468-31.8473,49.1544-85.51309,51.4702-137.2762,37.2592-43.805-12.0263-82.6145-24.3986-127.8645-12.1703-25.0633,6.7731-49.35,16.0819-74.3206,23.1665-33.9971,9.6457-69.0461,16.1986-104.4522,16.8625-93.6678,1.7565-200.6653-46.0274-208.9647-150.6306-.5378-6.7791-.6327-13.5921-.3283-20.3851,1.8712-41.7591,15.6719-83.5788,53.9252-105.2597,38.4593-21.7975,84.089-30.416,125.2278-45.876,23.3938-8.7915,46.0923-19.2381,68.534-30.2878Z" style="fill:#fff; opacity:.7;"></path></g></g><g id="freepik--Coins--inject-112"><g><path d="M312.3426,158.5946v-4.257c-3.143-.1222-5.493-1.1286-7.0488-3.0211-1.5564-1.8917-2.3964-4.7145-2.5178-8.468l6.4538-1.0986c.061,1.5262,.2215,2.7999,.481,3.8219,.2589,1.0229,.6481,1.7855,1.1671,2.2888,.5185,.5036,1.1901,.7553,2.0139,.7553,.9457,0,1.5944-.3046,1.9457-.9155,.35-.6102,.5262-1.3118,.5262-2.1056,0-1.5562-.359-2.8609-1.0754-3.9137-.7176-1.0528-1.7019-2.1126-2.9529-3.181l-3.8907-3.3416c-.8853-.8241-1.6784-1.6629-2.3802-2.5175-.7019-.854-1.2584-1.831-1.6705-2.9296-.4122-1.0984-.618-2.3953-.618-3.8908,0-2.8678,.816-5.1037,2.449-6.7057,1.6319-1.602,3.8219-2.5097,6.5684-2.7236v-4.0739h2.1973v4.0739c1.6476,.0917,2.9982,.4656,4.0507,1.1216,1.0531,.6566,1.854,1.4803,2.4031,2.4716,.5492,.9921,.9457,2.0757,1.1901,3.2501,.2439,1.175,.3965,2.3114,.4581,3.4101l-6.5461,.9611c-.0308-1.1286-.1219-2.1283-.2746-2.9982-.1527-.8696-.4273-1.5483-.8238-2.0368-.3971-.4877-1.0072-.7167-1.831-.6865-.8545,.0308-1.5033,.366-1.9451,1.007-.4429,.6409-.6638,1.3581-.6638,2.1511,0,1.404,.3355,2.5335,1.0072,3.3874,.6705,.8546,1.4339,1.6786,2.2885,2.4717l3.799,3.2957c1.0072,.9155,1.9378,1.9076,2.7924,2.9755,.8539,1.0684,1.5407,2.2507,2.0597,3.5473,.5184,1.2975,.7779,2.7851,.7779,4.4629,0,1.6179-.3283,3.0896-.9837,4.4172-.6566,1.3274-1.6023,2.4032-2.8382,3.2269-1.236,.8241-2.6934,1.3118-4.3712,1.4647v4.3029h-2.1973Z" style="fill:none; stroke:#263238; stroke-miterlimit:10;"></path><circle cx="312.628" cy="135.45602" r="34.7943" transform="translate(-17.41443 50.85936) rotate(-9.04963)" style="fill:none; stroke:#263238; stroke-miterlimit:10;"></circle><circle cx="312.628" cy="135.45603" r="29.24993" transform="translate(63.88601 368.29078) rotate(-66.53433)" style="fill:none; stroke:#263238; stroke-miterlimit:10;"></circle></g><g><path d="M447.15519,65.1887v-4.257c-3.143-.1222-5.493-1.1286-7.0488-3.0211-1.55639-1.8917-2.39639-4.7145-2.5178-8.468l6.4538-1.0986c.061,1.5262,.2215,2.7999,.481,3.8219,.2589,1.0229,.6481,1.7855,1.1671,2.2888,.51851,.5036,1.1901,.7553,2.0139,.7553,.9457,0,1.5944-.3046,1.9457-.9155,.35-.6102,.5262-1.3118,.5262-2.1056,0-1.5562-.359-2.8609-1.0754-3.9137-.7176-1.0528-1.70189-2.1126-2.95289-3.181l-3.89071-3.3416c-.88529-.8241-1.6784-1.6629-2.3802-2.5175-.7019-.854-1.2584-1.831-1.6705-2.9296-.4122-1.0984-.618-2.3953-.618-3.8908,0-2.8678,.816-5.1037,2.449-6.7057,1.6319-1.602,3.8219-2.5097,6.56841-2.7236v-4.0739h2.19729v4.0739c1.6476,.0917,2.9982,.4656,4.05071,1.1216,1.05309,.6566,1.854,1.4803,2.40309,2.4716,.5492,.9921,.9457,2.0757,1.1901,3.2501,.2439,1.175,.3965,2.3114,.4581,3.4101l-6.5461,.9611c-.0308-1.1286-.1219-2.1283-.2746-2.9982-.1527-.8696-.4273-1.5483-.8238-2.0368-.3971-.4877-1.0072-.7167-1.831-.6865-.8545,.0308-1.5033,.366-1.9451,1.007-.4429,.6409-.6638,1.3581-.6638,2.1511,0,1.404,.3355,2.5335,1.0072,3.3874,.6705,.8546,1.43391,1.6786,2.2885,2.4717l3.799,3.2957c1.0072,.9155,1.9378,1.9076,2.79241,2.9755,.85389,1.0684,1.54069,2.2507,2.05969,3.5473,.5184,1.2975,.7779,2.7851,.7779,4.4629,0,1.6179-.3283,3.0896-.9837,4.4172-.6566,1.3274-1.6023,2.4032-2.8382,3.2269-1.236,.8241-2.6934,1.3118-4.3712,1.4647v4.3029h-2.1973Z" style="fill:none; stroke:#263238; stroke-miterlimit:10;"></path><circle cx="447.44059" cy="42.05013" r="34.7943" transform="translate(-.90378 73.01168) rotate(-9.31928)" style="fill:none; stroke:#263238; stroke-miterlimit:10;"></circle><circle cx="447.44059" cy="42.05013" r="29.24993" transform="translate(240.26138 440.85844) rotate(-67.91716)" style="fill:none; stroke:#263238; stroke-miterlimit:10;"></circle></g><g><path d="M50.6026,180.8539v-3.02c-2.2297-.0867-3.8968-.8006-5.0005-2.1432-1.1042-1.342-1.7001-3.3446-1.7862-6.0074l4.5784-.7794c.0433,1.0828,.1572,1.9863,.3413,2.7114,.1836,.7256,.4597,1.2666,.8279,1.6237,.3679,.3573,.8443,.5358,1.4287,.5358,.6709,0,1.1311-.2161,1.3804-.6494,.2483-.4329,.3733-.9307,.3733-1.4938,0-1.104-.2547-2.0296-.763-2.7765-.509-.7468-1.2073-1.4987-2.0948-2.2566l-2.7602-2.3706c-.628-.5847-1.1906-1.1797-1.6885-1.786-.498-.6059-.8928-1.299-1.1851-2.0783-.2924-.7793-.4384-1.6993-.4384-2.7602,0-2.0345,.5789-3.6207,1.7373-4.7572,1.1578-1.1365,2.7114-1.7804,4.6598-1.9322v-2.8901h1.5588v2.8901c1.1689,.0651,2.127,.3303,2.8737,.7957,.7471,.4658,1.3152,1.0502,1.7048,1.7534,.3896,.7038,.6709,1.4725,.8443,2.3057,.173,.8336,.2813,1.6398,.325,2.4192l-4.644,.6818c-.0218-.8006-.0865-1.5098-.1948-2.127-.1083-.6169-.3031-1.0984-.5844-1.4449-.2817-.346-.7145-.5085-1.299-.487-.6062,.0218-1.0664,.2596-1.3799,.7143-.3142,.4547-.4709,.9635-.4709,1.5261,0,.996,.238,1.7973,.7146,2.4031,.4756,.6063,1.0172,1.1908,1.6235,1.7535l2.6951,2.338c.7145,.6495,1.3747,1.3533,1.9809,2.1109,.6058,.7579,1.093,1.5967,1.4612,2.5165,.3678,.9205,.5519,1.9758,.5519,3.1661,0,1.1478-.2329,2.1918-.6979,3.1336-.4658,.9417-1.1367,1.7049-2.0134,2.2893-.8769,.5846-1.9108,.9306-3.1011,1.0391v3.0525h-1.5588Z" style="fill:none; stroke:#263238; stroke-miterlimit:10;"></path><circle cx="50.8051" cy="164.43892" r="24.6838" transform="translate(-25.6842 10.26141) rotate(-9.21748)" style="fill:none; stroke:#263238; stroke-miterlimit:10;"></circle><circle cx="50.8051" cy="164.43893" r="20.75053" transform="translate(-120.55892 148.44861) rotate(-67.49998)" style="fill:none; stroke:#263238; stroke-miterlimit:10;"></circle></g><g><path d="M190.9524,392.2096v-3.02c-2.2297-.0867-3.8969-.8007-5.0006-2.1432-1.1041-1.342-1.7-3.3446-1.7862-6.0074l4.5785-.7794c.0433,1.0827,.1571,1.9863,.3412,2.7114,.1837,.7256,.4598,1.2666,.828,1.6237,.3678,.3572,.8443,.5358,1.4287,.5358,.6709,0,1.1311-.2161,1.3803-.6495,.2483-.4329,.3733-.9306,.3733-1.4937,0-1.104-.2547-2.0296-.7629-2.7765-.5091-.7469-1.2073-1.4987-2.0948-2.2567l-2.7602-2.3706c-.628-.5846-1.1907-1.1797-1.6885-1.7859-.498-.6059-.8928-1.299-1.1851-2.0783-.2925-.7793-.4385-1.6993-.4385-2.7603,0-2.0344,.5789-3.6206,1.7374-4.7571,1.1577-1.1365,2.7114-1.7805,4.6598-1.9322v-2.8901h1.5588v2.8901c1.1688,.065,2.127,.3303,2.8736,.7957,.7471,.4658,1.3153,1.0501,1.7049,1.7534,.3896,.7038,.6709,1.4725,.8442,2.3057,.1731,.8335,.2813,1.6397,.325,2.4192l-4.6439,.6818c-.0219-.8007-.0865-1.5099-.1948-2.127-.1084-.6169-.3032-1.0984-.5844-1.4449-.2818-.346-.7146-.5085-1.299-.4871-.6062,.0219-1.0665,.2597-1.3799,.7144-.3142,.4547-.4709,.9635-.4709,1.5261,0,.996,.238,1.7973,.7145,2.4031,.4757,.6062,1.0173,1.1908,1.6235,1.7534l2.6951,2.3381c.7146,.6494,1.3747,1.3533,1.981,2.1109,.6058,.7579,1.093,1.5967,1.4612,2.5165,.3678,.9205,.5519,1.9758,.5519,3.1661,0,1.1477-.2329,2.1918-.6979,3.1336-.4658,.9417-1.1367,1.7049-2.0135,2.2892-.8768,.5847-1.9107,.9307-3.101,1.0391v3.0526h-1.5588Z" style="fill:none; stroke:#263238; stroke-miterlimit:10;"></path><circle cx="191.1549" cy="375.7946" r="24.6838" style="fill:none; stroke:#263238; stroke-miterlimit:10;"></circle><circle cx="191.1549" cy="375.79462" r="20.75053" transform="translate(-229.18589 408.58822) rotate(-67.49998)" style="fill:none; stroke:#263238; stroke-miterlimit:10;"></circle></g><g><path d="M671.33919,180.2438v-3.02c-2.2297-.0867-3.8969-.8006-5.0006-2.1432-1.1041-1.342-1.7-3.3446-1.7862-6.0074l4.5785-.7793c.0433,1.0827,.15711,1.9863,.3412,2.7113,.1837,.7257,.4598,1.2667,.828,1.6237,.3678,.3573,.8443,.5358,1.4287,.5358,.6709,0,1.1311-.216,1.3803-.6494,.2483-.4329,.3733-.9307,.3733-1.4938,0-1.104-.2547-2.0296-.7629-2.7765-.5091-.7468-1.2074-1.4987-2.0948-2.2566l-2.7602-2.3706c-.628-.5847-1.1907-1.1797-1.68849-1.786-.498-.6058-.89281-1.2989-1.18511-2.0783-.2925-.7792-.4385-1.6993-.4385-2.7602,0-2.0345,.5789-3.6207,1.7374-4.7572,1.1577-1.1365,2.7114-1.7804,4.6598-1.9322v-2.8901h1.5588v2.8901c1.1688,.0651,2.127,.3303,2.87361,.7957,.74709,.4658,1.31529,1.0502,1.70489,1.7534,.3896,.7038,.6709,1.4726,.8442,2.3057,.1731,.8336,.2813,1.6398,.325,2.4192l-4.6439,.6818c-.0219-.8006-.0865-1.5098-.1948-2.127-.10839-.6169-.3032-1.0984-.5845-1.4449-.2817-.346-.7145-.5084-1.29889-.487-.60621,.0218-1.06651,.2596-1.37991,.7144-.3142,.4546-.4709,.9634-.4709,1.526,0,.996,.238,1.7973,.7145,2.4031,.4757,.6063,1.01731,1.1908,1.6235,1.7535l2.6951,2.338c.7145,.6495,1.37471,1.3533,1.981,2.1109,.6058,.7579,1.093,1.5967,1.4612,2.5165,.3678,.9205,.5519,1.9758,.5519,3.1661,0,1.1478-.2329,2.1918-.6979,3.1337-.4658,.9416-1.1367,1.7048-2.01349,2.2892-.87681,.5846-1.91071,.9306-3.101,1.0391v3.0525h-1.55881Z" style="fill:none; stroke:#263238; stroke-miterlimit:10;"></path><circle cx="671.54166" cy="163.82883" r="24.68388" transform="translate(-11.26104 56.17867) rotate(-4.75057)" style="fill:none; stroke:#263238; stroke-miterlimit:10;"></circle><circle cx="671.54169" cy="163.82883" r="20.75053" transform="translate(266.09422 723.66851) rotate(-67.7972)" style="fill:none; stroke:#263238; stroke-miterlimit:10;"></circle></g></g><g id="freepik--Plants--inject-112"><g style="opacity:.2;"><path d="M248.59,230.477c5.4862,.8932,17.4858-2.4651,17.4953-2.4675,.124-.0349-4.6149-7.2377-4.9661-7.658-4.0643-4.863-14.7784-11.8685-21.3573-9.2052-4.7389,1.9187-6.2128,7.5299-3.923,11.8686,2.3395,4.4316,8.0788,6.6996,12.7511,7.4621Z"></path><path d="M261.6957,264.3724c5.3096-.5628,15.2824-6.4407,16.0742-6.9122,3.243,5.5952,7.0239,11.0734,11.1558,16.4062,2.3582,3.0519,4.8293,6.0518,7.3443,9.0288-1.3501-1.1876-2.5666-2.2398-2.7524-2.3698-5.2062-3.6163-17.3892-7.5437-23.0295-3.237-4.0664,3.1021-4.0044,8.9019-.65,12.4822,3.4244,3.6565,9.562,4.329,14.2683,3.8296,4.7774-.5061,13.3793-5.3471,15.64-6.6587,.9768,1.1321,1.9391,2.273,2.9211,3.4004,4.707,5.4138,9.4276,10.795,13.8967,16.2153,1.5758,1.909,3.0569,3.8476,4.5474,5.7818-1.201-1.0545-2.2209-1.932-2.391-2.0502-5.2047-3.6154-17.3876-7.5438-23.0295-3.2373-4.0648,3.1024-4.0045,8.9032-.6499,12.4829,3.4271,3.6557,9.5616,4.3287,14.2693,3.8287,4.5584-.4828,12.5391-4.8798,15.2314-6.4252,1.466,2.0266,2.9376,4.0541,4.266,6.0836,.8764,1.4065,1.8187,2.6994,2.6178,4.1611,.8247,1.4305,1.63931,2.8468,2.447,4.2494,1.45631,2.7569,2.976,5.5938,4.3284,8.3197,.9554,1.8889,1.8307,3.7067,2.7182,5.5351-1.5464-1.919-4.653-5.6118-4.9478-5.8912-4.59549-4.3636-16.0433-10.09-22.2733-6.6887-4.4875,2.4515-5.3067,8.1937-2.5319,12.24,2.832,4.1323,8.7943,5.7269,13.5228,5.9468,5.2063,.2408,15.5525-3.8416,16.842-4.3602,1.4572,3.0304,2.8464,5.9918,4.1123,8.8079,2.8091,6.2096,5.1648,11.8171,7.0837,16.5825l4.5073-1.1526c-2.0909-4.9034-4.6732-10.7216-7.7779-17.2024-1.46749-3.0832-3.0971-6.3486-4.8027-9.6861,.7221-.5248,4.8103-3.5353,8.273-6.8264,4.4937,2.9115,14.6528,5.0657,15.96521,5.3345-.45491,3.3321-.931,6.5686-1.42891,9.6148-1.0259,6.377-2.0929,12.0721-3.0767,16.9368l4.8738-1.2463c.7774-4.4506,1.59081-9.5014,2.3624-15.0647,.4771-3.3813,.9197-7.0052,1.3382-10.7282,1.3626-.0605,12.4954-.6175,17.1434-2.9921,4.2137-2.1546,8.9853-6.0715,9.8573-11.0061,.8537-4.8301-2.267-9.7215-7.3677-10.0975-7.077-.5237-15.1342,9.4237-17.5156,15.2973-.1415,.3463-1.2461,4.2758-1.9018,6.7658,.163-1.522,.3379-2.9986,.48661-4.5682,.31669-3.1015,.53889-6.206,.79039-9.5449,.0657-1.6167,.1312-3.2502,.1988-4.8993,.0999-1.6347-.0014-3.3736,.0066-5.0762-.065-3.9494-.3243-7.9472-.6736-11.9685,2.7163,.2684,12.3771,1.0865,16.8902-.4122,4.4931-1.4917,9.8013-4.6389,11.4098-9.3848,1.5762-4.6456-.7674-9.9534-5.7507-11.099-6.9177-1.5885-16.3883,7.0242-19.6327,12.4685-.2029,.3386-2.0912,4.5074-3.0845,6.8167-.2292-2.416-.4461-4.8282-.7575-7.2652-.8966-7.0341-2.0247-14.1263-3.1166-21.2067-.3366-2.1689-.6449-4.3336-.9621-6.4996,.9661,.1064,12.4268,1.3266,17.4825-.3517,4.4929-1.49,9.802-4.639,11.4101-9.3849,1.5757-4.6451-.7676-9.953-5.7511-11.0969-6.917-1.5897-16.38759,7.0221-19.63159,12.4663-.24421,.4099-2.95411,6.4122-3.56851,7.9724-.697-4.7713-1.3476-9.531-1.7976-14.2506-.6313-6.5092-.8895-12.9318-.6803-19.1724,.449,.0506,12.4062,1.3774,17.5836-.3402,4.4933-1.4918,9.8025-4.6405,11.4109-9.3854,1.5752-4.6457-.7673-9.9528-5.7518-11.0981-6.9178-1.5891-16.3866,7.0231-19.6325,12.4675-.2532,.4271-3.1656,6.8859-3.61,8.0947,.014-.371-.0136-.7572,.0045-1.1271,.3081-6.6595,1.4429-13.0719,2.79971-19.0234,.78129-3.4602,1.72229-6.7238,2.70779-9.8779,2.2025,.4754,12.288,2.5374,17.11821,1.5063,4.62919-.9888,10.25229-3.5349,12.37159-8.0748,2.0766-4.4448,.3305-9.9775-4.4968-11.6626-6.702-2.3389-17.0597,5.1807-20.8827,10.2357-.2076,.2746-2.0115,3.3035-3.2939,5.5276,.4663-1.4173,.9212-2.888,1.3961-4.236,1.7685-5.0679,3.7003-9.5988,5.4441-13.599,1.0099-2.2651,1.9669-4.2946,2.8843-6.1842,2.4031-.6594,12.0576-3.4434,15.801-6.5278,3.65131-3.0111,7.4701-7.8612,7.2598-12.8677-.207-4.9019-4.3062-9.0077-9.366-8.2783-7.0253,1.0113-12.7541,12.4585-13.8176,18.7071-.09089,.5403-.5585,9.1501-.4328,9.1167,0,0,.117-.0312,.1456-.0391-.9193,1.8002-1.8823,3.7404-2.8925,5.8822-1.8347,3.9699-3.8704,8.4707-5.75519,13.5193-1.89821,5.0409-3.81761,10.5708-5.31481,16.5772-1.5083,6.0197-2.7863,12.4282-3.25,19.2016-.0059,.0762-.0007,.1571-.0066,.234-.4792-2.0236-2.0092-7.6366-2.1761-8.0531-2.3466-5.8874-10.3397-15.8854-17.4227-15.4067-5.1012,.3462-8.251,5.2171-7.4281,10.0539,.8418,4.9393,5.5869,8.8843,9.7894,11.0655,4.7382,2.4592,16.299,3.0575,17.2193,3.1035-.383,6.4544-.2502,13.1091,.2529,19.8359,.2845,3.8474,.6902,7.7125,1.1465,11.5833-.4712-1.7364-.905-3.2855-.9895-3.4949-2.3472-5.8882-10.3401-15.8841-17.4225-15.4055-5.1021,.3449-8.2513,5.2171-7.4276,10.0531,.8403,4.9397,5.5866,8.8844,9.78781,11.0653,4.26419,2.212,14.10989,2.9218,16.71739,3.0739,.19061,1.4829,.3644,2.9669,.5611,4.4488,.9394,7.1114,1.9091,14.204,2.6456,21.1901,.2618,2.4621,.4282,4.8957,.6028,7.3298-.41989-1.5407-.7867-2.8354-.8625-3.0265-2.3472-5.8885-10.3403-15.8853-17.4211-15.4065-5.1027,.3463-8.253,5.2169-7.43,10.055,.8404,4.9375,5.5883,8.8839,9.7899,11.0638,4.0672,2.1121,13.1506,2.8478,16.2487,3.0438,.1047,2.4985,.2134,5.001,.202,7.4279-.0457,1.6565,.0257,3.2534-.1121,4.9151-.1024,1.6464-.2025,3.2783-.30279,4.8931-.30761,3.1036-.60441,6.3075-.97961,9.3274-.2452,2.1025-.5188,4.1018-.7865,6.1152-.2318-2.4533-.7848-7.2469-.8763-7.6418-.9493-4.1024-4.093-10.3634-8.16859-14.2878-.13621-.6069-.32421-1.1984-.57211-1.7707-1.9544-4.4998-7.2545-6.8583-11.7161-4.3589-6.1923,3.4682-7.4241,16.21-6.1703,22.4214,.0736,.3669,1.32,4.2534,2.1467,6.6932-.7053-1.3598-1.37219-2.6882-2.11419-4.0788-1.44861-2.7605-2.97561-5.4727-4.60641-8.3986-.8369-1.3844-1.684-2.7816-2.5388-4.195-.817-1.4179-1.86079-2.812-2.7941-4.2369-2.2331-3.2567-4.6546-6.45-7.1648-9.6111,2.4154-1.2746,10.9232-5.9219,13.8608-9.6616,2.92531-3.722,5.6154-9.2771,4.3402-14.1214-1.25-4.7447-6.1302-7.8792-10.9192-6.0847-6.6465,2.4904-9.7949,14.8982-9.4981,21.2291,.0191,.3954,.7432,4.9135,1.1883,7.3882-1.5236-1.8881-3.0358-3.7814-4.6398-5.6421-4.6282-5.3729-9.4802-10.6667-14.2985-15.9686-1.4768-1.6235-2.9281-3.2584-4.3881-4.8894,.8646-.4451,11.0973-5.7509,14.3882-9.9388,2.9245-3.7215,5.6156-9.2765,4.3398-14.1222-1.2494-4.7434-6.131-7.8785-10.9188-6.083-6.6467,2.4905-9.7945,14.8972-9.498,21.2284,.023,.4771,1.0741,6.977,1.4222,8.6167-3.2128-3.5931-6.3814-7.2055-9.3612-10.8927-4.1169-5.0822-7.8761-10.2954-11.1439-15.6159,.4038-.2067,11.1078-5.6966,14.4784-9.9853,2.9252-3.7222,5.6161-9.2766,4.3394-14.1221-1.2483-4.7442-6.1298-7.8778-10.9189-6.0832-6.6465,2.49-9.794,14.8977-9.4967,21.2284,.0231,.4975,1.1582,7.4905,1.4543,8.7423-.1939-.3162-.4298-.6227-.619-.9404-3.4164-5.7261-6.0075-11.7-8.1595-17.4128-1.2565-3.3162-2.2716-6.5568-3.1892-9.7319,2.0983-.8182,11.6484-4.6624,15.1077-8.1874,3.3164-3.3793,6.6013-8.6043,5.8651-13.5598-.7212-4.8525-5.2293-8.5046-10.1848-7.2469-6.8797,1.7453-11.3713,13.7328-11.7714,20.0573-.0219,.3448,.1436,3.8657,.3015,6.4284-.3918-1.4393-.8243-2.9176-1.172-4.3036-1.3199-5.2022-2.2093-10.048-2.9613-14.3451-.4082-2.4477-.7281-4.669-1.0051-6.7494,1.6397-1.8778,8.1565-9.5247,9.5771-14.1625,1.3856-4.5269,1.893-10.677-1.044-14.7363-2.876-3.9751-8.5594-5.1375-12.3781-1.739-5.3017,4.7202-3.7637,17.4283-1.2054,23.2267,.2225,.4998,4.5825,7.9387,4.6694,7.8427,0,0,.08-.0917,.0982-.1134,.227,2.0077,.4947,4.1585,.834,6.5014,.6589,4.3228,1.4441,9.2003,2.6573,14.4519,1.1983,5.2503,2.6476,10.9229,4.7132,16.7584,2.0633,5.8512,4.5313,11.9028,7.8817,17.8078,.0379,.0666,.0865,.1317,.1247,.1979-1.5168-1.4232-5.8902-5.2591-6.2597-5.5158-5.2047-3.6167-17.3874-7.5442-23.0296-3.2389-4.0642,3.1034-4.0042,8.9043-.6493,12.4842,3.4271,3.6555,9.5616,4.3272,14.2679,3.8288Z"></path><path d="M371.35149,201.9136c.1234,.0393,.144-8.5834,.0834-9.1273-.7092-6.2976-5.7801-18.051-12.7374-19.4592-5.0109-1.0144-9.335,2.8529-9.8174,7.7356-.4938,4.9853,3.04191,10.0442,6.51891,13.2568,4.08129,3.7723,15.94339,7.5904,15.95249,7.5941Z"></path></g><g style="opacity:.2;"><path d="M514.33169,258.6597c6.5268,2.4407,22.1025,1.2478,22.1148,1.2471,.1609-.0125-3.9032-10.0281-4.2321-10.6308-3.8072-6.9738-15.26639-18.2089-24.007-16.5442-6.2961,1.1996-9.4813,7.7381-7.7276,13.6329,1.792,6.0213,8.2937,10.2143,13.8519,12.295Z"></path><path d="M522.15149,303.5421c6.6661,.6072,20.3662-4.1795,21.4551-4.5654,2.6183,7.6729,5.92641,15.3337,9.7018,22.9016,2.1527,4.3294,4.457,8.6226,6.8208,12.8983-1.3694-1.7905-2.6076-3.3819-2.8043-3.5872-5.5163-5.7203-19.5347-13.5303-27.5234-9.6152-5.7588,2.8191-7.1018,9.9652-3.8536,15.1882,3.3158,5.3337,10.6976,7.6624,16.6063,8.2,5.99781,.5467,17.7587-3.3006,20.8592-4.3601,.924,1.6311,1.828,3.2693,2.7595,4.8957,4.4627,7.8082,8.95,15.5798,13.1186,23.3377,1.4704,2.7327,2.8171,5.4787,4.1764,8.2217-1.2186-1.5905-2.25789-2.9189-2.4381-3.1059-5.5147-5.7188-19.5327-13.53-27.5234-9.6155-5.7569,2.8197-7.1022,9.9668-3.8536,15.189,3.31921,5.3334,10.69721,7.662,16.6078,8.1991,5.7228,.5219,16.6112-2.9315,20.2997-4.1728,1.3065,2.8505,2.6198,5.7033,3.7565,8.5237,.7334,1.9439,1.5757,3.764,2.2005,5.7568,.6639,1.9607,1.319,3.9014,1.9689,5.8236,1.11581,3.7461,2.2902,7.606,3.286,11.2885,.7125,2.5562,1.3439,5.0055,1.9877,7.4707-1.4318-2.738-4.3478-8.0385-4.64189-8.4541-4.58251-6.4897-17.25671-16.3318-25.749-13.6743-6.11741,1.9162-8.52971,8.776-6.10811,14.43,2.4708,5.7738,9.4114,9.1933,15.1715,10.6207,6.3424,1.57,20.0623-.9176,21.7747-1.2398,1.0501,4.0825,2.0335,8.0636,2.901,11.8358,1.9343,8.3223,3.4586,15.7933,4.6518,22.1221l5.8239-.3142c-1.3709-6.5405-3.1223-14.3261-5.3537-23.0542-1.0499-4.1499-2.2545-8.5636-3.535-13.0845,1.0163-.4686,6.7795-3.1697,11.8423-6.3689,4.8128,4.6794,16.7765,9.814,18.3244,10.4656-1.3746,3.9855-2.752,7.8484-4.1096,11.472-2.8218,7.5896-5.5273,14.3309-7.92719,20.0714l6.29749-.3397c2.0448-5.2819,4.2808-11.293,6.5909-17.9444,1.414-4.0408,2.8449-8.3881,4.2704-12.8632,1.6903,.259,15.5147,2.2983,21.8105,.5161,5.7082-1.6182,12.5335-5.2666,14.813-11.1203,2.2316-5.73-.4084-12.5077-6.5879-14.2181-8.5733-2.3757-20.914,7.8834-25.2792,14.5225-.2588,.3911-2.5784,4.9523-3.9938,7.8534,.5728-1.8315,1.1492-3.6042,1.716-5.4977,1.1483-3.7359,2.1812-7.4986,3.3075-11.5423,.4763-1.9717,.9566-3.9641,1.4432-5.9753,.52291-1.9854,.8238-4.1482,1.2502-6.2397,.8865-4.8718,1.5459-9.8506,2.1005-14.8804,3.2741,.9946,14.9521,4.3644,20.8679,3.6261,5.88931-.7346,13.1862-3.3053,16.3251-8.747,3.0747-5.3262,1.492-12.4258-4.35479-15.0537-8.11681-3.6458-21.86871,4.6263-27.18991,10.5264-.3324,.3666-3.6743,5.0303-5.4606,7.6266,.3094-3.0266,.633-6.0456,.8463-9.1182,.6189-8.868,.9673-17.8642,1.3573-26.8369,.11691-2.7491,.2675-5.4862,.4075-8.2269,1.1618,.3673,14.9545,4.6719,21.58141,3.8455,5.88869-.7326,13.187-3.3053,16.32549-8.747,3.074-5.3258,1.4916-12.4254-4.3558-15.0513-8.11569-3.6471-21.8673,4.6239-27.1881,10.5239-.40059,.4443-5.2013,7.1611-6.3384,8.9291,.3106-6.0369,.6752-12.0484,1.2769-17.9613,.8166-8.1578,2.0707-16.1178,3.85491-23.7397,.53969,.1722,14.91679,4.7293,21.70279,3.8844,5.8898-.7346,13.188-3.3069,16.3266-8.7474,3.07361-5.3266,1.4921-12.4251-4.3562-15.0529-8.1169-3.6466-21.8665,4.6254-27.1897,10.5252-.4157,.4632-5.5771,7.6918-6.4192,9.0693,.108-.4527,.1686-.9344,.2813-1.3846,2.0083-8.1128,4.9728-15.7194,8.0973-22.7049,1.8073-4.0631,3.7629-7.8456,5.7464-11.4825,2.59171,1.1234,14.4875,6.1265,20.67871,6.0408,5.93369-.0831,13.47049-1.8376,17.18719-6.901,3.64081-4.9569,2.8477-12.1868-2.67519-15.4399-7.668-4.5157-22.24311,2.1954-28.18051,7.4752-.32249,.2868-3.2816,3.5696-5.4026,5.9903,.9202-1.6285,1.8394-3.3254,2.75311-4.8666,3.41449-5.7984,6.89839-10.8965,10.02129-15.3882,1.796-2.538,3.4692-4.7991,5.0595-6.8979,3.1161-.2228,15.6678-1.2833,21.02521-4.1597,5.22629-2.8088,11.10838-7.8377,12.07478-14.0448,.945-6.0778-3.0904-12.1289-9.4901-12.4703-8.8853-.4756-18.7301,12.1973-21.56669,19.6199-.24391,.6421-2.92571,11.1137-2.763,11.1034,0,0,.15149-.0098,.18869-.0125-1.5709,1.9884-3.2296,4.1383-4.9958,6.5245-3.2273,4.4323-6.8315,9.468-10.3844,15.2142-3.5674,5.7335-7.2804,12.063-10.591,19.0817-3.3276,7.0323-6.467,14.599-8.6946,22.8137-.0258,.0922-.0392,.193-.0654,.286-.094-2.6053-.6016-9.881-.705-10.4339-1.44449-7.8129-8.8258-22.0617-17.6518-23.2063-6.35669-.8226-11.4215,4.3955-11.5932,10.5439-.1736,6.279,4.6953,12.2906,9.3287,16.0009,5.224,4.183,19.292,7.7476,20.4123,8.0293-2.0503,7.8421-3.5154,16.0568-4.5429,24.4507-.5917,4.8001-1.0385,9.6516-1.4247,14.5226-.1544-2.2503-.3088-4.2612-.3615-4.5393-1.445-7.814-8.8266-22.0601-17.6518-23.2048-6.35759-.8243-11.4218,4.3956-11.5924,10.5432-.1755,6.2791,4.6949,12.2906,9.32681,16.0002,4.70169,3.7631,16.63359,7.045,19.80239,7.8701-.1285,1.8699-.278,3.737-.3988,5.6072-.5851,8.9736-1.1283,17.9315-1.9323,26.7013-.2804,3.0912-.6715,6.1242-1.05229,9.1597-.13931-1.9971-.27351-3.6788-.31991-3.9322-1.44509-7.8145-8.8267-22.0617-17.6499-23.2057-6.3587-.8228-11.4239,4.3949-11.5959,10.5449-.1748,6.2764,4.6972,12.2905,9.3298,15.9989,4.48391,3.592,15.4722,6.7193,19.2335,7.7184-.48259,3.0975-.9614,6.201-1.5692,9.1821-.4615,2.0257-.7646,4.0065-1.3406,6.016-.5287,1.9992-1.0511,3.9812-1.5696,5.9421-1.1377,3.7406-2.2866,7.6074-3.4869,11.2286-.816,2.5251-1.6415,4.9164-2.46329,7.3263,.31529-3.0731,.80829-9.1022,.79239-9.6102-.16339-5.2763-2.4966-13.7437-6.5473-19.5661-.019-.7796-.1054-1.5528-.2702-2.3172-1.30189-6.0108-7.2414-10.2075-13.3387-8.2262-8.4623,2.749-13.0947,18.114-13.0729,26.0579,.0006,.4692,.5821,5.5528,1.0015,8.7548-.5344-1.8444-1.0293-3.641-1.6013-5.5323-1.1056-3.7486-2.31949-7.4571-3.6087-11.4536-.6902-1.9069-1.3899-3.8321-2.095-5.779-.6576-1.9433-1.59979-3.9128-2.3987-5.8931-1.9487-4.5507-4.1447-9.0695-6.4575-13.5704,3.2817-.9761,14.87941-4.6083,19.40641-8.4875,4.50749-3.8605,9.17429-10.0325,8.79189-16.3007-.37589-6.1397-5.6092-11.1878-11.9366-10.1532-8.7814,1.4356-15.6887,15.921-16.8729,23.7776-.0732,.4909-.2886,6.2233-.3468,9.3749-1.4113-2.6944-2.8074-5.3923-4.3241-8.0725-4.3759-7.7386-9.0462-15.4349-13.6731-23.1327-1.4185-2.3575-2.8028-4.7227-4.1989-7.0854,1.172-.3357,15.0517-4.3554,20.1228-8.6994,4.5064-3.86,9.1744-10.0316,8.7915-16.3018-.3754-6.1377-5.6104-11.1869-11.9365-10.1509-8.7818,1.4357-15.6879,15.9199-16.8725,23.7769-.0886,.5921-.3867,8.8412-.36,10.9425-3.0709-5.2041-6.08279-10.4209-8.8444-15.6837-3.8182-7.256-7.1647-14.5856-9.8806-21.927,.547-.1553,15.05121-4.2861,20.2449-8.7344,4.5075-3.8609,9.1752-10.0317,8.7911-16.3018-.3739-6.1386-5.6091-11.1859-11.9365-10.1513-8.7814,1.4353-15.6875,15.9206-16.871,23.7772-.09329,.6174-.4089,9.4933-.3512,11.1048-.1609-.4363-.37609-.8708-.5309-1.3077-2.7994-7.8765-4.5235-15.8556-5.7715-23.4062-.7335-4.3849-1.1886-8.6177-1.5399-12.746,2.78021-.4926,15.463-2.8824,20.5788-6.37,4.9045-3.3434,10.222-8.9639,10.52941-15.237,.30059-6.1427-4.34871-11.7362-10.74921-11.4024-8.8859,.4625-17.34179,14.1023-19.3813,21.7806-.1114,.4187-.7694,4.7881-1.2023,7.9777-.1296-1.8656-.2995-3.789-.388-5.5782-.3498-6.7192-.2577-12.8949-.1308-18.3623,.097-3.1095,.2473-5.9189,.4158-8.5445,2.4755-1.9076,12.3592-9.7151,15.24081-15.0698,2.81139-5.227,4.94009-12.6645,2.32219-18.3742-2.5633-5.5913-9.2668-8.4112-14.7937-5.167-7.67349,4.5062-8.8921,20.5076-7.1654,28.263,.1511,.6689,3.6917,10.8821,3.82191,10.7854,0,0,.12089-.0931,.14859-.1154-.2122,2.5241-.4093,5.234-.5654,8.1977-.2477,5.4762-.4757,11.6654-.2691,18.4193,.1886,6.7487,.5824,14.0779,1.6943,21.7582,1.1051,7.6992,2.6588,15.7437,5.3333,23.824,.03031,.0911,.0742,.183,.1048,.2738-1.5166-2.121-5.9553-7.9075-6.3467-8.3136-5.5144-5.7205-19.5324-13.5305-27.5231-9.6176-5.7564,2.8213-7.1021,9.9684-3.8531,15.1909,3.3192,5.3331,10.69741,7.6601,16.6059,8.1989Z"></path><path d="M672.26009,253.5794c.1421,.0785,2.2773-10.5183,2.33591-11.202,.66909-7.9165-2.68981-23.6086-10.89941-27.0424-5.9128-2.4734-12.1758,1.2235-13.9637,7.1089-1.827,6.0087,1.2823,13.094,4.7714,17.8948,4.095,5.6369,17.7455,13.2339,17.7558,13.2407Z"></path></g></g><g id="freepik--Floor--inject-112"><line x1="32.491" y1="457.5169" x2="714.40769" y2="457.5169" style="fill:none; stroke:#263238; stroke-linecap:round; stroke-linejoin:round;"></line></g><g id="freepik--Document--inject-112"><g><path d="M623.61869,364.3539H364.69969l26.4009-301.2921c.7995-9.1242,8.8443-16.5209,17.9686-16.5209h259.06449l-17.9235,14.3459-26.5915,303.4671Z" style="fill:#fff; stroke:#263238; stroke-linecap:round; stroke-linejoin:round;"></path><path d="M694.95339,106.3686h-48.7405l3.781-43.1494c.8072-9.2112,8.9286-16.6783,18.1398-16.6783h0c8.8067,0,15.3204,7.1392,14.5487,15.9459l-2.6572,30.3242,14.9282,13.5576Z" style="fill:#263238; stroke:#263238; stroke-linecap:round; stroke-linejoin:round;"></path><path d="M682.92719,61.6364l-2.5225,28.7863c-.7716,8.8067,5.742,15.9459,14.5487,15.9459,9.2112,0,17.3327-7.4671,18.1398-16.6783l2.4583-28.0539h-32.6243Z" style="fill:#fff; stroke:#263238; stroke-linecap:round; stroke-linejoin:round;"></path><line x1="572.13329" y1="136.2599" x2="618.92679" y2="136.2599" style="fill:none; stroke:#263238; stroke-linecap:round; stroke-linejoin:round;"></line><line x1="458.75529" y1="136.2599" x2="565.91139" y2="136.2599" style="fill:none; stroke:#263238; stroke-linecap:round; stroke-linejoin:round;"></line><line x1="414.00489" y1="136.2599" x2="450.45929" y2="136.2599" style="fill:none; stroke:#263238; stroke-linecap:round; stroke-linejoin:round;"></line><line x1="510.605" y1="148.5963" x2="617.84579" y2="148.5963" style="fill:none; stroke:#263238; stroke-linecap:round; stroke-linejoin:round;"></line><line x1="412.92389" y1="148.5963" x2="505.42" y2="148.5963" style="fill:none; stroke:#263238; stroke-linecap:round; stroke-linejoin:round;"></line><line x1="573.17029" y1="160.9327" x2="616.76489" y2="160.9327" style="fill:none; stroke:#263238; stroke-linecap:round; stroke-linejoin:round;"></line><line x1="411.84289" y1="160.9327" x2="565.56569" y2="160.9327" style="fill:none; stroke:#263238; stroke-linecap:round; stroke-linejoin:round;"></line><line x1="566.257" y1="173.2692" x2="615.68389" y2="173.2692" style="fill:none; stroke:#263238; stroke-linecap:round; stroke-linejoin:round;"></line><line x1="446.31129" y1="173.2692" x2="560.03509" y2="173.2692" style="fill:none; stroke:#263238; stroke-linecap:round; stroke-linejoin:round;"></line><line x1="410.76189" y1="173.2692" x2="441.472" y2="173.2692" style="fill:none; stroke:#263238; stroke-linecap:round; stroke-linejoin:round;"></line><line x1="599.44079" y1="185.6056" x2="614.60289" y2="185.6056" style="fill:none; stroke:#263238; stroke-linecap:round; stroke-linejoin:round;"></line><line x1="476.03849" y1="185.6056" x2="595.29289" y2="185.6056" style="fill:none; stroke:#263238; stroke-linecap:round; stroke-linejoin:round;"></line><line x1="409.68089" y1="185.6056" x2="471.19919" y2="185.6056" style="fill:none; stroke:#263238; stroke-linecap:round; stroke-linejoin:round;"></line><line x1="585.26859" y1="197.9421" x2="613.52189" y2="197.9421" style="fill:none; stroke:#263238; stroke-linecap:round; stroke-linejoin:round;"></line><line x1="476.38419" y1="197.9421" x2="578.701" y2="197.9421" style="fill:none; stroke:#263238; stroke-linecap:round; stroke-linejoin:round;"></line><line x1="408.6" y1="197.9421" x2="469.12519" y2="197.9421" style="fill:none; stroke:#263238; stroke-linecap:round; stroke-linejoin:round;"></line><line x1="590.10789" y1="210.2785" x2="612.44089" y2="210.2785" style="fill:none; stroke:#263238; stroke-linecap:round; stroke-linejoin:round;"></line><line x1="523.04889" y1="210.2785" x2="583.88589" y2="210.2785" style="fill:none; stroke:#263238; stroke-linecap:round; stroke-linejoin:round;"></line><line x1="433.52169" y1="210.2785" x2="517.17259" y2="210.2785" style="fill:none; stroke:#263238; stroke-linecap:round; stroke-linejoin:round;"></line><line x1="407.519" y1="210.2785" x2="429.02809" y2="210.2785" style="fill:none; stroke:#263238; stroke-linecap:round; stroke-linejoin:round;"></line><line x1="603.93449" y1="222.6149" x2="611.35989" y2="222.6149" style="fill:none; stroke:#263238; stroke-linecap:round; stroke-linejoin:round;"></line><line x1="553.12179" y1="222.6149" x2="598.40389" y2="222.6149" style="fill:none; stroke:#263238; stroke-linecap:round; stroke-linejoin:round;"></line><line x1="491.24779" y1="222.6149" x2="546.89979" y2="222.6149" style="fill:none; stroke:#263238; stroke-linecap:round; stroke-linejoin:round;"></line><line x1="471.19919" y1="222.6149" x2="485.71709" y2="222.6149" style="fill:none; stroke:#263238; stroke-linecap:round; stroke-linejoin:round;"></line><line x1="406.438" y1="222.6149" x2="466.35989" y2="222.6149" style="fill:none; stroke:#263238; stroke-linecap:round; stroke-linejoin:round;"></line><polygon points="516.135 123.0447 602.31149 120.1707 516.63869 117.2967 516.642 117.2587 516.07309 117.2777 515.50749 117.2587 515.50419 117.2967 429.32769 120.1707 515.00049 123.0447 514.99719 123.0827 515.56609 123.0637 516.13169 123.0827 516.135 123.0447" style="fill:#263238;"></polygon><line x1="532.46309" y1="271.5803" x2="607.06929" y2="271.5803" style="fill:none; stroke:#263238; stroke-linecap:round; stroke-linejoin:round;"></line><g><path d="M569.27439,254.3632s-13.89739,27.3617-28.2917,24.1893c-14.3942-3.1724-14.7438-21.81-1.4432-33.3099,13.3006-11.4999,12.9348,19.8273,9.6113,39.6547-3.3236,19.8273,3.76921-15.8619,9.1654-41.2409,5.3962-25.379,13.7462-7.5344,7.3954,1.5862-6.3509,9.1206-28.42459,16.655-25.0928,10.3102,3.3318-6.3447,26.8058,6.3448,21.6936,19.4308" style="fill:none; stroke:#263238; stroke-linecap:round; stroke-linejoin:round;"></path><path d="M566.78709,265.2083l4.0008-5.0559s-4.2306,7.6774-.5975,4.6814c3.6331-2.9961,9.3781-10.8607,7.4303-7.8647-1.9479,2.9961-5.1601,9.7372-3.0742,7.3029,2.0858-2.4343,7.69951-8.8009,6.1426-5.9921-1.5569,2.8088-3.3503,6.1793-2.6013,6.1793,.7491,0,6.2575-7.3028,5.3444-5.4303-.913,1.8726-1.43519,3.5578-1.43519,3.5578,0,0,3.68229-3.5578,3.24209-2.8088-.44009,.749-6.5093,18.7253-6.5093,18.7253,0,0,5.7478-12.1714,10.9609-16.1037,5.2132-3.9323,6.4255-2.8088,6.4255-2.8088" style="fill:none; stroke:#263238; stroke-linecap:round; stroke-linejoin:round;"></path></g><g><path d="M471.40519,267.9624c-.0847,.9656-2.1086,1.828-2.2828,2.7696-.17739,.9592,1.4591,2.182,1.1937,3.1117-.2694,.9439-2.3894,1.4101-2.7443,2.3189-.3591,.9192,.9755,2.4607,.53421,3.3391-.445,.8859-2.57941,.9347-3.10261,1.7741-.5262,.8443,.4555,2.6439-.1443,3.436-.6019,.795-2.6683,.4272-3.3386,1.1645-.6716,.7385-.0779,2.7256-.81249,3.4009-.73441,.6753-2.65421-.0927-3.446,.5141-.79021,.6057-.60641,2.7042-1.448,3.2364-.83851,.5302-2.53821-.6093-3.42211-.1571-.8786,.4495-1.1141,2.5795-2.032,2.9468-.9102,.3642-2.3227-1.1056-3.2662-.8272-.9325,.2752-1.5806,2.3543-2.5404,2.5409-.9459,.184-2.016-1.5596-2.9834-1.4663-.9496,.0916-1.9828,2.04-2.9484,2.04s-1.6573-1.9484-2.5908-2.04c-.951-.0933-2.32669,1.6503-3.2403,1.4664-.9275-.1867-1.2115-2.2659-2.0961-2.5412-.8949-.2785-2.5651,1.1912-3.4116,.8269-.85369-.3674-.7159-2.4976-1.5158-2.9472-.8047-.4522-2.7042,.6871-3.4498,.1568-.7484-.5323-.1967-2.6309-.8808-3.2366-.6854-.6069-2.7398,.1609-3.3559-.5144-.6161-.6754,.3259-2.6624-.2161-3.401-.5411-.7372-2.6718-.3695-3.1344-1.1645-.4608-.792,.8364-2.5915,.4582-3.4358-.3759-.8392-2.5017-.888-2.7914-1.7738-.2872-.8783,1.3177-2.4196,1.1197-3.3387-.1956-.9084-2.2338-1.3742-2.3378-2.3177-.1024-.9298,1.74841-2.1527,1.7391-3.1119-.0092-.9416-1.882-1.804-1.7974-2.7697,.0846-.9656,2.1086-1.828,2.28271-2.7695,.17739-.9592-1.45911-2.1821-1.19371-3.1118,.2694-.9439,2.3894-1.4101,2.7444-2.3188,.3591-.9193-.9755-2.4608-.5343-3.3392,.4451-.8859,2.5795-.9347,3.10261-1.774,.52629-.8443-.45541-2.644,.14429-3.4361,.602-.795,2.6683-.4272,3.33871-1.1644,.67149-.7385,.07789-2.7257,.81239-3.401,.7345-.6752,2.6543,.0927,3.446-.5141,.7903-.6056,.6065-2.7041,1.4481-3.2364,.83851-.5302,2.5382,.6094,3.422,.1572,.8787-.4495,1.1141-2.5796,2.0321-2.9469,.9102-.3642,2.3227,1.1056,3.2662,.8272,.9325-.2752,1.5805-2.3542,2.5403-2.5409,.94591-.1839,2.016,1.5597,2.9835,1.4663,.9496-.0916,1.9827-2.04,2.94841-2.04,.96559,0,1.65719,1.9484,2.59079,2.04,.951,.0934,2.3266-1.6503,3.24021-1.4663,.92749,.1867,1.21159,2.2658,2.09619,2.5412,.89481,.2785,2.5651-1.1912,3.4116-.8269,.8537,.3674,.7159,2.4975,1.5158,2.9471,.8047,.4523,2.7042-.6871,3.4498-.1568,.7484,.5324,.1967,2.6309,.8808,3.2367,.6854,.6068,2.73981-.1609,3.3559,.5144,.6161,.6753-.326,2.6624,.2161,3.4009,.541,.7372,2.67181,.3695,3.1343,1.1645,.4608,.7921-.8364,2.5916-.4582,3.4358,.376,.8393,2.5018,.8881,2.7915,1.7739,.28721,.8782-1.3177,2.4195-1.11979,3.3386,.19559,.9084,2.23389,1.3743,2.33779,2.3178,.1025,.9297-1.7483,2.1526-1.739,3.1119,.0091,.9416,1.882,1.804,1.7974,2.7696Z" style="fill:none; stroke:#263238; stroke-linecap:round; stroke-linejoin:round;"></path><ellipse cx="441.26272" cy="267.9624" rx="21.45638" ry="19.65685" transform="translate(-62.79823 379.49352) rotate(-43.74529)" style="fill:#3A2E3D;"></ellipse><line x1="432.99059" y1="260.9823" x2="450.75809" y2="260.9823" style="fill:none; stroke:#263238; stroke-linecap:round; stroke-linejoin:round;"></line><line x1="431.90639" y1="273.3561" x2="449.67379" y2="273.3561" style="fill:none; stroke:#263238; stroke-linecap:round; stroke-linejoin:round;"></line><line x1="426.27279" y1="267.6451" x2="456.30829" y2="267.6451" style="fill:none; stroke:#263238; stroke-linecap:round; stroke-linejoin:round;"></line></g></g><g><path d="M445.07989,109.252l2.6574-30.3264h7.8629c2.046,0,3.7794,.2312,5.1995,.693,1.41931,.4619,2.4708,1.2791,3.15431,2.4522,.68339,1.1735,.93439,2.7957,.75289,4.8671-.1094,1.2485-.3126,2.3529-.608,3.3135-.2971,.9611-.7444,1.797-1.3436,2.5082-.59929,.7117-1.4036,1.2796-2.4145,1.7037l2.8977,14.7887h-6.3277l-2.2771-13.7403h-2.1722l-1.204,13.7403h-6.1776Zm7.70311-17.4097h1.79739c.9983,0,1.7988-.162,2.4015-.4865,.6018-.324,1.0509-.8172,1.3463-1.4788,.2946-.6612,.4854-1.4789,.5707-2.4522,.1225-1.3979-.0405-2.465-.4875-3.2012-.447-.7359-1.36939-1.1044-2.7672-1.1044h-2.0968l-.76439,8.7231Z" style="fill:#3A2E3D;"></path><path d="M466.79509,109.252l2.6574-30.3264h13.2169l-.3741,4.2683h-7.03929l-.70531,8.0495h5.4294l-.3773,4.3056h-5.4294l-.8333,9.5098h7.114l-.3675,4.1932h-13.2915Z" style="fill:#3A2E3D;"></path><path d="M483.19289,109.252l2.6574-30.3264h4.3063l5.3546,15.7998,1.3845-15.7998h5.0919l-2.6574,30.3264h-4.1189l-5.2694-16.7731-1.4697,16.7731h-5.2793Z" style="fill:#3A2E3D;"></path><path d="M506.78009,109.252l2.2538-25.721h-4.6796l.4035-4.6054h15.4996l-.4036,4.6054h-4.605l-2.25379,25.721h-6.21491Z" style="fill:#3A2E3D;"></path><path d="M538.08059,109.6638c-2.2469,0-3.988-.4242-5.2241-1.2728-1.2354-.8482-2.0494-2.0277-2.4412-3.5383-.3919-1.5099-.5004-3.2631-.3254-5.2602l.9547-10.895c.1837-2.0964,.6038-3.8997,1.2603-5.4099,.6565-1.5099,1.67611-2.677,3.058-3.5006,1.3827-.8236,3.19711-1.2354,5.4439-1.2354,2.1715,0,3.8434,.3617,5.015,1.0857,1.1724,.7239,1.9564,1.7473,2.352,3.0701,.3955,1.3232,.5168,2.8581,.3637,4.605l-.2231,2.5459h-5.9901l.2493-2.8454c.0612-.6985,.0813-1.3537,.0603-1.9657-.02189-.6111-.18389-1.1103-.4867-1.4975-.3029-.3868-.8665-.5806-1.6901-.5806s-1.44,.2001-1.8499,.5992c-.4091,.3995-.6919,.9174-.847,1.554-.1558,.6362-.2677,1.3418-.3354,2.115l-1.2073,13.778c-.0744,.8487-.0712,1.5913,.01051,2.2275,.08159,.6365,.30109,1.1234,.65829,1.4602,.3573,.3371,.89771,.5055,1.622,.5055,.7983,0,1.3838-.193,1.7545-.5802,.3707-.3868,.6281-.9046,.7724-1.5539,.1442-.6489,.248-1.3351,.3114-2.0591l.2592-2.9577h5.9901l-.2197,2.5082c-.1554,1.7727-.542,3.3386-1.1599,4.6987-.6189,1.3609-1.5746,2.4335-2.8658,3.2198-1.292,.7863-3.0484,1.1795-5.2699,1.1795Z" style="fill:#3A2E3D;"></path><path d="M548.89929,109.252l8.5355-30.3264h6.851l3.1835,30.3264h-5.728l-.5018-6.6645h-4.7924l-1.7444,6.6645h-5.8034Zm8.44071-10.4458h3.63119l-.7611-12.2428-2.87009,12.2428Z" style="fill:#3A2E3D;"></path><path d="M570.31419,109.252l2.6574-30.3264h7.8629c2.046,0,3.7794,.2312,5.19951,.693,1.41939,.4619,2.47079,1.2791,3.15429,2.4522,.6835,1.1735,.9345,2.7957,.753,4.8671-.1094,1.2485-.3126,2.3529-.6081,3.3135-.297,.9611-.7444,1.797-1.3436,2.5082-.5993,.7117-1.4035,1.2796-2.4144,1.7037l2.8977,14.7887h-6.3277l-2.27719-13.7403h-2.17221l-1.204,13.7403h-6.1776Zm7.7031-17.4097h1.7974c.99831,0,1.7988-.162,2.4015-.4865,.60181-.324,1.0509-.8172,1.3464-1.4788,.2946-.6612,.48541-1.4789,.5707-2.4522,.1224-1.3979-.0406-2.465-.4876-3.2012-.447-.7359-1.3694-1.1044-2.7672-1.1044h-2.0968l-.7644,8.7231Z" style="fill:#3A2E3D;"></path></g></g><g id="freepik--Car--inject-112"><g><path d="M601.48949,395.5517h-10.9077l-.1564,.2298c-.9259-.139-1.8633-.2298-2.8182-.2298-13.2988,0-24.0798,13.8715-24.0798,30.9825s10.781,30.9827,24.0798,30.9827c.9549,0,8.85-.0908,9.77581-.2299l-6.80121,.2299h10.9077c13.2987,0,24.0797-13.8713,24.0797-30.9827s-10.781-30.9825-24.0797-30.9825Z" style="fill:#263238; stroke:#263238; stroke-linecap:round; stroke-linejoin:round;"></path><path d="M378.07329,395.5517h-10.9074l-.1566,.2298c-.9259-.139-1.86329-.2298-2.8182-.2298-13.2989,0-24.0798,13.8715-24.0798,30.9825s10.7809,30.9827,24.0798,30.9827c.95491,0,1.8923-.0908,2.8182-.2299l.1566,.2299h10.9074c13.2988,0,24.0798-13.8713,24.0798-30.9827s-10.781-30.9825-24.0798-30.9825Z" style="fill:#263238; stroke:#263238; stroke-linecap:round; stroke-linejoin:round;"></path><path d="M705.283,396.4632h-5.23241l-4.6898-32.8769c-.5709-4.0027-3.9987-6.9762-8.0419-6.9762h-29.3364l-47.6323-50.5482c-5.1564-5.4723-12.34219-8.5746-19.8613-8.5746h-126.2726c-5.5041,0-10.7698,2.2456-14.5798,6.2178l-216.88339,91.5623v38.6572h325.17529l81.6083-.5798,60.5139-3.968v-.276h4.9755c1.097,0,1.9862-.8893,1.9862-1.9861v-28.9222c0-.955-.77429-1.7293-1.72929-1.7293Z" style="fill:#3A2E3D; stroke:#263238; stroke-linecap:round; stroke-linejoin:round;"></path><path d="M612.905,427.9852v5.5489l26.63169-.1893,60.5139-3.968v-.276h4.9755c.7802,0,1.4393-.4609,1.7643-1.1156h-93.88539Z" style="fill:#263238; stroke:#263238; stroke-linecap:round; stroke-linejoin:round;"></path><path d="M639.53669,433.3448h0c2.5574-.1677,2.433-3.968-.1299-3.968h-30.5986l-113.1643-131.8895h-31.4276c-5.5038,0-10.7698,2.2456-14.5798,6.2178l-216.88339,91.5623v38.6572h325.17529l81.6083-.5798Z" style="fill:#263238; stroke:#263238; stroke-linecap:round; stroke-linejoin:round;"></path><g><path d="M283.4202,395.5517h-10.9077l-7.1521,10.5004c-3.744,5.461-6.02,12.6277-6.02,20.4821s2.276,15.0213,6.02,20.4822l7.1521,10.5005h10.9077c13.2988,0,24.0796-13.8715,24.0796-30.9827s-10.7808-30.9825-24.0796-30.9825Z" style="fill:#263238; stroke:#263238; stroke-linecap:round; stroke-linejoin:round;"></path><ellipse cx="269.53775" cy="426.53425" rx="24.07975" ry="30.98265" style="fill:#636363; stroke:#263238; stroke-linecap:round; stroke-linejoin:round;"></ellipse><ellipse cx="269.53775" cy="426.53425" rx="19.20975" ry="24.71655" style="fill:#fff; stroke:#263238; stroke-linecap:round; stroke-linejoin:round;"></ellipse><path d="M273.5962,426.5342c0,2.884-1.8172,5.2219-4.0584,5.2219-2.2414,0-4.0585-2.3379-4.0585-5.2219s1.8171-5.2217,4.0585-5.2217c2.2412,0,4.0584,2.3378,4.0584,5.2217Z" style="fill:#fff; stroke:#263238; stroke-linecap:round; stroke-linejoin:round;"></path></g><g><path d="M526.44879,395.5517h-10.9075l-7.1521,10.5004c-3.744,5.461-6.0199,12.6277-6.0199,20.4821s2.2759,15.0213,6.0199,20.4822l7.1521,10.5005h10.9075c13.2988,0,24.0798-13.8715,24.0798-30.9827s-10.781-30.9825-24.0798-30.9825Z" style="fill:#263238; stroke:#263238; stroke-linecap:round; stroke-linejoin:round;"></path><ellipse cx="512.56667" cy="426.53425" rx="24.07957" ry="30.98265" style="fill:#636363; stroke:#263238; stroke-linecap:round; stroke-linejoin:round;"></ellipse><ellipse cx="512.56667" cy="426.53425" rx="19.20957" ry="24.71655" style="fill:#fff; stroke:#263238; stroke-linecap:round; stroke-linejoin:round;"></ellipse><path d="M516.62489,426.5342c0,2.884-1.8168,5.2219-4.0582,5.2219-2.2416,0-4.0583-2.3379-4.0583-5.2219s1.8167-5.2217,4.0583-5.2217c2.2414,0,4.0582,2.3378,4.0582,5.2217Z" style="fill:#fff; stroke:#263238; stroke-linecap:round; stroke-linejoin:round;"></path></g><path d="M610.35019,306.0619c-.39319-.4177-.8199-.7945-1.2364-1.1843h-98.36979v48.6059h144.29219l-44.686-47.4216Z" style="fill:#263238; stroke:#263238; stroke-linecap:round; stroke-linejoin:round;"></path><path d="M621.647,396.4632h-5.73271l-5.6848-39.8531h-36.3833l-47.632-50.5482c-5.1567-5.4723-12.3425-8.5746-19.8614-8.5746h-115.9107c-5.50409,0-10.7697,2.2458-14.5797,6.2178l-74.038,49.4941-68.503,29.5612-10.7186,14.3933c-2.6374,3.5415-4.062,7.8395-4.062,12.2549v24.516h21.6026v-8.1696c0-19.9776,14.5279-36.1726,32.4488-36.1726h.0001c15.9671,0,25.889,12.9492,28.3793,30.531l1.9563,13.8112h180.5287v-8.1696c0-19.9776,8.1977-36.1726,30.2317-36.1726h0c19.6318,0,26.65171,12.9492,29.7134,30.531l2.30431,13.2314,70.20829-3.968v-.276h5.73271v-32.6376Z" style="fill:#3A2E3D; stroke:#263238; stroke-linecap:round; stroke-linejoin:round;"></path><path d="M376.48109,310.9902l-63.5712,42.209h118.8143v-47.7531h-42.06819c-4.95881,0-9.70821,1.9986-13.17491,5.5441Z" style="fill:#263238; stroke:#263238; stroke-linecap:round; stroke-linejoin:round;"></path><g><path d="M362.67639,353.1992l37.6825-47.7531h-10.70289c-4.95881,0-9.70821,1.9986-13.17491,5.5441l-22.244,14.7693-21.65309,27.4397h30.09239Z" style="fill:#fff; stroke:#263238; stroke-linecap:round; stroke-linejoin:round;"></path><polygon points="431.72419 353.1992 431.72419 318.9095 404.66549 353.1992 431.72419 353.1992" style="fill:#fff; stroke:#263238; stroke-linecap:round; stroke-linejoin:round;"></polygon></g><path d="M522.252,313.2234l27.02589,27.6402c.9015,.9219,1.5412,2.0673,1.8533,3.3184h0c1.14281,4.5813-2.3227,9.0172-7.0441,9.0172h-104.4042v-47.7531h64.0879c6.9557,0,13.6181,2.8037,18.48121,7.7773Z" style="fill:#263238; stroke:#263238; stroke-linecap:round; stroke-linejoin:round;"></path><g><polygon points="496.93439 305.4461 486.43709 305.4461 448.75439 353.1992 459.25169 353.1992 496.93439 305.4461" style="fill:#fff; stroke:#263238; stroke-linecap:round; stroke-linejoin:round;"></polygon><polygon points="439.68289 308.8237 439.68289 346.9581 472.44059 305.4461 442.34829 305.4461 439.68289 308.8237" style="fill:#fff; stroke:#263238; stroke-linecap:round; stroke-linejoin:round;"></polygon></g><path d="M610.22949,356.6101h77.0894c4.0432,0,7.471,2.9735,8.0419,6.9762l4.6898,32.8769h-84.1363l-5.6848-39.8531Z" style="fill:#3A2E3D; stroke:#263238; stroke-linecap:round; stroke-linejoin:round;"></path><rect x="646.84469" y="374.5797" width="36.5588" height="15.0128" style="fill:#fff; stroke:#263238; stroke-linecap:round; stroke-linejoin:round;"></rect><line x1="704.06859" y1="402.6081" x2="547.41139" y2="402.6081" style="fill:#fff; stroke:#263238; stroke-linecap:round; stroke-linejoin:round; stroke-width:2px;"></line><line x1="477.40929" y1="402.6081" x2="303.8049" y2="402.6081" style="fill:#fff; stroke:#263238; stroke-linecap:round; stroke-linejoin:round; stroke-width:2px;"></line><line x1="246.1704" y1="402.6081" x2="226.3009" y2="402.6081" style="fill:#fff; stroke:#263238; stroke-linecap:round; stroke-linejoin:round; stroke-width:2px;"></line><path d="M640.533,374.8229h-34.53991c-3.26,0-6.2403,1.842-7.6985,4.7578l-5.7762,11.5527c-1.1558,2.3113,.5249,5.0308,3.1091,5.0308h44.90551v-21.3413Z" style="fill:#fff; stroke:#263238; stroke-linecap:round; stroke-linejoin:round;"></path><polygon points="640.533 374.8229 612.69689 374.8229 615.74119 396.1642 640.533 396.1642 640.533 374.8229" style="fill:#263238; stroke:#263238; stroke-linecap:round; stroke-linejoin:round;"></polygon><polygon points="696.833 374.8229 688.40369 374.8229 688.29319 396.1642 699.87729 396.1642 696.833 374.8229" style="fill:#263238; stroke:#263238; stroke-linecap:round; stroke-linejoin:round;"></polygon><rect x="300.9716" y="343.2507" width="22.171" height="18.76" rx="2" ry="2" style="fill:#263238; stroke:#263238; stroke-linecap:round; stroke-linejoin:round;"></rect><rect x="407.56329" y="362.0107" width="21.3184" height="8.5275" style="fill:#263238; stroke:#263238; stroke-linecap:round; stroke-linejoin:round;"></rect><line x1="433.99819" y1="358.5999" x2="433.99819" y2="423.4075" style="fill:none; stroke:#263238; stroke-linecap:round; stroke-linejoin:round;"></line><path d="M289.8861,387.5929s15.6144,8.8113,17.6137,38.9413h165.7239" style="fill:none; stroke:#263238; stroke-linecap:round; stroke-linejoin:round;"></path><path d="M551.67519,400.3839s-8.1628-21.3185-35.496-21.3185c-19.0504,0-28.1614,10.0053-32.7226,17.9076" style="fill:none; stroke:#263238; stroke-linecap:round; stroke-linejoin:round;"></path></g></g><g id="freepik--Keys--inject-112"><g><g><circle cx="136.76882" cy="105.58158" r="51.24822" transform="translate(-20.59896 34.24742) rotate(-13.28251)" style="fill:#263238; stroke:#263238; stroke-linecap:round; stroke-linejoin:round;"></circle><circle cx="136.76882" cy="102.01718" r="51.24822" transform="translate(-19.78003 34.15207) rotate(-13.28251)" style="fill:#3A2E3D; stroke:#263238; stroke-linecap:round; stroke-linejoin:round;"></circle><path d="M152.0154,69.7131c-2.3276-1.1663-5.1591-.2242-6.3254,2.1027-1.1659,2.3277-.2245,5.1595,2.1028,6.3254,8.9217,4.4694,14.4639,13.4396,14.4639,23.4097,0,14.4271-11.7372,26.1643-26.1643,26.1643s-26.164-11.7372-26.164-26.1643c0-2.9862,.5094-5.9285,1.4887-8.7078l5.21707,5.4904,7.45678-25.2409-25.58845,6.1593,5.862,6.1691c-2.5316,4.9757-3.8627,10.4972-3.8627,16.1299,0,19.6248,15.96583,35.591,35.5906,35.591s35.5909-15.9662,35.5909-35.591c0-13.5607-7.5362-25.76-19.6679-31.8378Z" style="fill:#263238;"></path><path d="M136.8199,107.5452c.0138,0,.0272-.002,.041-.0021l4.3568,12.6118c.2592,.7503,.9617,1.2212,1.7134,1.2212,.1961,0,.3958-.0319,.5919-.0999,.9461-.3268,1.4485-1.3589,1.1214-2.3053l-4.3588-12.6175c1.3395-1.0386,2.2068-2.6584,2.2068-4.4806,0-1.0344-.2829-2.002-.7686-2.8379l8.0372-9.1536c.6606-.7524,.5863-1.8978-.1661-2.5581-.7531-.6614-1.8981-.5867-2.5581,.166l-8.0333,9.1494c-.6726-.2816-1.41-.4383-2.1836-.4383-3.12782,0-5.67248,2.5446-5.67248,5.6725s2.54466,5.6724,5.67248,5.6724Z" style="fill:#263238;"></path></g><g><path d="M260.4181,73.3532c-2.1353-1.191-4.7695-.5519-5.8719,1.4245l-1.7235,3.0901c-1.1024,1.9765-.262,4.5535,1.8733,5.7445,2.1354,1.191,4.7696,.552,5.8719-1.4245l1.7236-3.0901c1.1023-1.9764,.2619-4.5535-1.8734-5.7445Zm-3.6786,2.6479c.478-.8572,1.6203-1.1343,2.5463-.6178s1.2904,1.634,.8124,2.4911l-1.7236,3.0901c-.478,.8571-1.6203,1.1342-2.5463,.6177s-1.2904-1.634-.8124-2.4911l1.7236-3.09Z" style="fill:#fff; stroke:#263238; stroke-linecap:round; stroke-linejoin:round;"></path><path d="M275.1806,89.4118l-32.7737-20.4372c-6.4298-4.0095-14.915-1.6207-18.3085,5.1545l-20.5978,41.1227c-2.9741,5.9375-.9398,13.1628,4.695,16.6766l25.5077,15.9063c5.6348,3.5137,13.0182,2.161,17.0413-3.1222l27.8638-36.5918c4.5906-6.0287,3.0021-14.6993-3.4278-18.7089Zm-43.2705-9.8512c3.2023-3.0996,7.8931-3.9864,11.4945-1.7407l23.3941,14.5883c3.6013,2.2457,4.8692,6.8482,3.4949,11.0878l-38.3835-23.9354Z" style="fill:#263238; stroke:#263238; stroke-linecap:round; stroke-linejoin:round;"></path><g><polygon points="212.5616 134.651 185.7614 177.6287 186.18 184.5759 182.9005 189.835 176.8404 192.5254 174.4042 196.4321 175.5709 199.2465 173.5095 202.5521 169.7564 203.5508 167.0391 207.9083 166.8759 215.8043 170.4923 218.0595 219.7207 139.1153 212.5616 134.651" style="fill:#fff; stroke:#263238; stroke-linecap:round; stroke-linejoin:round;"></polygon><polygon points="226.8798 143.5796 200.0796 186.5572 193.6569 189.2384 190.3775 194.4975 190.6281 201.1232 188.192 205.0299 185.1514 205.2207 183.09 208.5264 183.8447 212.3361 181.1274 216.6936 174.1088 220.3147 170.4923 218.0595 219.7207 139.1153 226.8798 143.5796" style="fill:#fff; stroke:#263238; stroke-linecap:round; stroke-linejoin:round;"></polygon></g></g><g><path d="M227.0299,60.5028c-.0433,2.117,1.5157,3.872,3.4752,3.9121l3.0636,.0626c1.9595,.0401,3.589-1.6497,3.6323-3.7668,.0433-2.117-1.5157-3.872-3.4753-3.912l-3.0636-.0627c-1.9595-.04-3.5889,1.6498-3.6322,3.7668Zm3.5197,1.7376c-.8498-.0174-1.5258-.7784-1.507-1.6965s.7253-1.6508,1.5751-1.6334l3.0636,.0626c.8497,.0174,1.5258,.7784,1.507,1.6965-.0188,.918-.7253,1.6508-1.5751,1.6334l-3.0636-.0626Z" style="fill:#fff; stroke:#263238; stroke-linecap:round; stroke-linejoin:round;"></path><path d="M238.5712,59.8525c-.7294,1.9879,.1741,4.1545,2.0141,4.8297l2.8767,1.0555c1.84,.6751,3.9304-.3929,4.6598-2.3808,.7294-1.9878-.1741-4.1545-2.0141-4.8296l-2.8767-1.0555c-1.84-.6751-3.9304,.3929-4.6598,2.3807Zm2.7633,2.7879c-.7979-.2928-1.1897-1.2324-.8734-2.0944,.3163-.8621,1.2228-1.3252,2.0207-1.0324l2.8767,1.0555c.7979,.2928,1.1897,1.2323,.8734,2.0944-.3163,.862-1.2228,1.3252-2.0207,1.0324l-2.8767-1.0555Z" style="fill:#fff; stroke:#263238; stroke-linecap:round; stroke-linejoin:round;"></path><path d="M248.8243,64.0156c-1.6211,1.3624-1.914,3.6915-.653,5.1919l1.9715,2.3458c1.261,1.5004,3.6057,1.6127,5.2268,.2504,1.621-1.3623,1.9139-3.6915,.6529-5.1919l-1.9714-2.3458c-1.261-1.5004-3.6058-1.6127-5.2268-.2504Zm1.012,3.7926c-.5468-.6507-.4198-1.6607,.2832-2.2515,.703-.5907,1.7197-.542,2.2665,.1086l1.9715,2.3458c.5468,.6507,.4198,1.6607-.2831,2.2515-.703,.5908-1.7198,.5421-2.2666-.1086l-1.9715-2.3458Z" style="fill:#fff; stroke:#263238; stroke-linecap:round; stroke-linejoin:round;"></path><g><path d="M215.7466,60.2721c-.0433,2.117,1.5158,3.872,3.4753,3.912l3.0636,.0627c1.9595,.04,3.589-1.6498,3.6322-3.7668,.0433-2.117-1.5157-3.872-3.4752-3.9121l-3.0636-.0626c-1.9595-.0401-3.589,1.6497-3.6323,3.7668Zm3.5198,1.7375c-.8498-.0173-1.5259-.7783-1.5071-1.6964s.7254-1.6508,1.5751-1.6334l3.0636,.0626c.8498,.0174,1.5258,.7784,1.5071,1.6965-.0188,.918-.7254,1.6508-1.5752,1.6334l-3.0635-.0627Z" style="fill:#fff; stroke:#263238; stroke-linecap:round; stroke-linejoin:round;"></path><path d="M226.5193,61.58l4.0363,.0826c.5558,.0113,1.0163-.4662,1.0286-1.0667s-.4283-1.0965-.9841-1.1078l-4.0363-.0826-.2237-.0045-3.9556-.0809c-.5558-.0114-1.0163,.4662-1.0286,1.0667-.0123,.6004,.4283,1.0964,.9841,1.1078l3.9557,.0808,.2236,.0046Z" style="fill:#fff; stroke:#263238; stroke-linecap:round; stroke-linejoin:round;"></path><path d="M238.0717,61.8172l4.0364,.0825c.5558,.0114,1.0163-.4661,1.0285-1.0666,.0123-.6005-.4283-1.0965-.9841-1.1078l-4.0363-.0826-.2236-.0045-3.9557-.0809c-.5558-.0114-1.0163,.4661-1.0286,1.0666-.0123,.6005,.4283,1.0965,.9841,1.1079l3.9557,.0808,.2236,.0046Z" style="fill:#fff; stroke:#263238; stroke-linecap:round; stroke-linejoin:round;"></path><path d="M247.655,64.9858l3.131,2.5487c.4312,.3509,1.088,.2579,1.4672-.2079,.3791-.4658,.337-1.1279-.0941-1.4788l-3.131-2.5487-.1735-.1412-3.0684-2.4978c-.4311-.3509-1.088-.2578-1.4671,.208-.3792,.4657-.3371,1.1278,.0941,1.4788l3.0684,2.4977,.1734,.1412Z" style="fill:#fff; stroke:#263238; stroke-linecap:round; stroke-linejoin:round;"></path><path d="M255.062,72.8583l2.5496,3.1302c.351,.4311,1.0131,.473,1.4788,.0937s.5585-1.0362,.2075-1.4672l-2.5496-3.1302-.1412-.1735-2.4987-3.0677c-.3511-.431-1.0131-.4729-1.4788-.0936-.4657,.3792-.5586,1.0361-.2075,1.4672l2.4986,3.0676,.1413,.1735Z" style="fill:#fff; stroke:#263238; stroke-linecap:round; stroke-linejoin:round;"></path></g><g><path d="M204.6435,61.6963c.2323,2.1047,2.0062,3.6422,3.9543,3.4272l3.0458-.3361c1.948-.215,3.344-2.1023,3.1118-4.2069-.2323-2.1047-2.0062-3.6422-3.9543-3.4272l-3.0458,.3361c-1.948,.215-3.344,2.1022-3.1118,4.2069Zm3.7157,1.2654c-.8448,.0932-1.614-.5735-1.7147-1.4862s.5046-1.7311,1.3494-1.8243l3.0457-.3361c.8449-.0932,1.6141,.5734,1.7148,1.4861,.1007,.9128-.5046,1.7312-1.3494,1.8244l-3.0458,.3361Z" style="fill:#fff; stroke:#263238; stroke-linecap:round; stroke-linejoin:round;"></path><path d="M215.0339,59.4556l-3.9326,.434c-.5526,.061-.9471,.5943-.8812,1.1913s.5672,1.0315,1.1198,.9705l3.9326-.434,.2223-.0245,4.0128-.4428c.5526-.061,.9471-.5944,.8812-1.1913-.0658-.597-.5672-1.0315-1.1198-.9705l-4.0128,.4428-.2223,.0245Z" style="fill:#fff; stroke:#263238; stroke-linecap:round; stroke-linejoin:round;"></path></g><g><path d="M193.9227,65.2895c.5878,2.0342,2.598,3.2465,4.4809,2.7024l2.9438-.8507c1.8828-.5441,2.9365-2.6418,2.3486-4.6761-.5878-2.0342-2.598-3.2466-4.4809-2.7024l-2.9438,.8507c-1.8829,.5441-2.9365,2.6419-2.3486,4.6761Zm3.8771,.613c-.8165,.236-1.6882-.2898-1.9432-1.1719-.2549-.8822,.202-1.7918,1.0185-2.0278l2.9438-.8507c.8165-.2359,1.6882,.2897,1.9431,1.1719,.255,.8822-.2019,1.7918-1.0184,2.0278l-2.9438,.8507Z" style="fill:#fff; stroke:#263238; stroke-linecap:round; stroke-linejoin:round;"></path><path d="M204.5973,63.3366l3.8785-1.1208c.534-.1543,.8318-.7472,.6651-1.3242-.1668-.577-.7349-.9196-1.2689-.7652l-3.8785,1.1208-.2149,.0621-3.801,1.0984c-.534,.1544-.8318,.7472-.665,1.3242,.1667,.577,.7348,.9196,1.2689,.7652l3.8009-1.0984,.2149-.0621Z" style="fill:#fff; stroke:#263238; stroke-linecap:round; stroke-linejoin:round;"></path></g><g><path d="M183.2695,69.067c.6839,2.0039,2.7495,3.1194,4.6044,2.4863l2.9-.9896c1.8548-.6331,2.8076-2.7785,2.1237-4.7825s-2.7495-3.1194-4.6044-2.4864l-2.9,.9897c-1.8548,.633-2.8076,2.7785-2.1237,4.7825Zm3.9019,.428c-.8044,.2745-1.7001-.2092-1.9966-1.0782-.2966-.8691,.1165-1.7994,.9209-2.0739l2.9-.9897c.8044-.2745,1.7001,.2092,1.9966,1.0782,.2966,.869-.1165,1.7994-.9209,2.0739l-2.9,.9897Z" style="fill:#fff; stroke:#263238; stroke-linecap:round; stroke-linejoin:round;"></path><path d="M193.8393,66.6089l3.8208-1.3039c.5261-.1796,.7954-.7859,.6014-1.3543s-.7778-.8837-1.3039-.7041l-3.8208,1.3039-.2117,.0723-3.7444,1.2778c-.5262,.1796-.7954,.7859-.6014,1.3543s.7777,.8836,1.3038,.7041l3.7445-1.2779,.2117-.0722Z" style="fill:#fff; stroke:#263238; stroke-linecap:round; stroke-linejoin:round;"></path><path d="M183.0922,70.2163l3.8208-1.304c.5262-.1795,.7954-.7858,.6014-1.3542s-.7777-.8837-1.3038-.7041l-3.8208,1.3039-.2117,.0723-3.7444,1.2778c-.5262,.1795-.7954,.7859-.6014,1.3543s.7777,.8836,1.3038,.7041l3.7445-1.2779,.2116-.0722Z" style="fill:#fff; stroke:#263238; stroke-linecap:round; stroke-linejoin:round;"></path></g></g></g></g></svg>
