<svg xmlns="http://www.w3.org/2000/svg" viewBox="0 0 750 500"><g id="freepik--background-complete--inject-64"><rect x="60.06" y="91.22" width="33.29" height="46.4" style="fill:#f5f5f5"></rect><rect x="94.63" y="91.22" width="35.97" height="46.4" style="fill:#f5f5f5"></rect><rect x="94.63" y="140.86" width="35.97" height="44.84" style="fill:#f5f5f5"></rect><polygon points="135.21 90.41 173.1 90.41 173.1 49.25 174.38 49.25 174.38 90.41 205.21 90.41 205.21 48.34 135.21 48.34 135.21 90.41" style="fill:#f5f5f5"></polygon><rect x="174.38" y="91.22" width="30.83" height="46.4" style="fill:#f5f5f5"></rect><rect x="174.38" y="140.86" width="30.83" height="44.84" style="fill:#f5f5f5"></rect><rect x="60.06" y="140.86" width="33.29" height="44.84" style="fill:#f5f5f5"></rect><rect x="135.21" y="140.86" width="37.88" height="44.84" style="fill:#f5f5f5"></rect><rect x="60.06" y="186.5" width="33.29" height="40.4" style="fill:#f5f5f5"></rect><rect x="174.38" y="186.5" width="30.83" height="40.4" style="fill:#f5f5f5"></rect><polygon points="93.35 90.41 93.35 49.25 94.63 49.25 94.63 90.41 130.6 90.41 130.6 48.34 60.06 48.34 60.06 90.41 93.35 90.41" style="fill:#f5f5f5"></polygon><rect x="135.21" y="186.5" width="37.88" height="40.4" style="fill:#f5f5f5"></rect><rect x="94.63" y="186.5" width="35.97" height="40.4" style="fill:#f5f5f5"></rect><rect x="135.21" y="91.22" width="37.88" height="46.4" style="fill:#f5f5f5"></rect><rect x="369.95" y="87.97" width="33.29" height="46.4" style="fill:#f5f5f5"></rect><rect x="404.53" y="87.97" width="35.97" height="46.4" style="fill:#f5f5f5"></rect><rect x="404.53" y="137.62" width="35.97" height="44.84" style="fill:#f5f5f5"></rect><polygon points="445.11 87.17 482.99 87.17 482.99 46.01 484.27 46.01 484.27 87.17 515.1 87.17 515.1 45.09 445.11 45.09 445.11 87.17" style="fill:#f5f5f5"></polygon><rect x="484.27" y="87.97" width="30.83" height="46.4" style="fill:#f5f5f5"></rect><rect x="484.27" y="137.62" width="30.83" height="44.84" style="fill:#f5f5f5"></rect><rect x="369.95" y="137.62" width="33.29" height="44.84" style="fill:#f5f5f5"></rect><rect x="445.11" y="137.62" width="37.88" height="44.84" style="fill:#f5f5f5"></rect><rect x="369.95" y="183.26" width="33.29" height="40.4" style="fill:#f5f5f5"></rect><rect x="484.27" y="183.26" width="30.83" height="40.4" style="fill:#f5f5f5"></rect><polygon points="403.25 87.17 403.25 46.01 404.53 46.01 404.53 87.17 440.5 87.17 440.5 45.09 369.95 45.09 369.95 87.17 403.25 87.17" style="fill:#f5f5f5"></polygon><rect x="445.11" y="183.26" width="37.88" height="40.4" style="fill:#f5f5f5"></rect><rect x="404.53" y="183.26" width="35.97" height="40.4" style="fill:#f5f5f5"></rect><rect x="445.11" y="87.97" width="37.88" height="46.4" style="fill:#f5f5f5"></rect><rect x="257.89" y="69.37" width="24.33" height="6.44" style="fill:#fafafa"></rect><path d="M271.93,82.59s0,0,0-.12v-.33c0-.3,0-.72,0-1.27,0-1.11,0-2.7,0-4.72l.08.08-24.33,0,.12-.13h0v6.43l-.12-.12,17.34,0,5.11,0h1.42l-1.36,0-5.09,0-17.42.06h-.12V76.16h0l.12-.12,24.33,0H272v.07c0,2,0,3.65,0,4.77,0,.53,0,1,0,1.25v.42Z" style="fill:#e0e0e0"></path><rect x="681.9" y="386.66" width="24.33" height="6.44" style="fill:#fafafa"></rect><path d="M695.94,399.87a.55.55,0,0,1,0-.12v-.33c0-.3,0-.72,0-1.26,0-1.11,0-2.71,0-4.73l.08.08-24.33.05.13-.13h0v1.62c0,.55,0,1.09,0,1.62v3.17l-.12-.12,17.34.05,5.11,0h.06l-5.09,0-17.42.05h-.12v-6.53h0l.12-.12,24.33.05H696v.07c0,2,0,3.65,0,4.77,0,.53,0,.95,0,1.25v.32A.82.82,0,0,0,695.94,399.87Z" style="fill:#e0e0e0"></path><rect x="42.2" y="256.52" width="24.33" height="6.44" style="fill:#fafafa"></rect><path d="M56.24,269.73a.5.5,0,0,1,0-.11v-.33c0-.3,0-.73,0-1.27,0-1.11,0-2.71,0-4.72l.08.07-24.33.05c.06-.05-.12.13.13-.12h0v3.25c0,1.07,0,2.13,0,3.16l-.12-.12,17.34.06,5.11,0,1.39,0h0l-1.36,0-5.09,0-17.42.06h-.12v-6.54h0l.12-.12,24.33,0h.07v.08c0,2,0,3.64,0,4.77,0,.53,0,.95,0,1.25v.31C56.24,269.7,56.24,269.74,56.24,269.73Z" style="fill:#e0e0e0"></path><path d="M332.32,168.77a.55.55,0,0,1,0-.12c0-.09,0-.19,0-.33,0-.3,0-.72,0-1.27,0-1.11,0-2.7-.05-4.72l.08.08-24.33.05.13-.13h0v3.26c0,1.08,0,2.13,0,3.17l-.12-.12,17.34,0,5.12,0h1.74c.08,0,.13,0,.13,0h-.46l-1.36,0-5.09,0-17.42.06h-.12v-6.55h0l.12-.12,24.33,0h.08v.07c0,2,0,3.65,0,4.77,0,.53,0,1,0,1.25v.32A.82.82,0,0,0,332.32,168.77Z" style="fill:#e0e0e0"></path><path d="M335.62,162.33s0,0,0-.12,0-.2,0-.34c0-.32,0-.75,0-1.29,0-1.13,0-2.72-.05-4.68l.09.09L321,156c-.11.11.15-.15.13-.12h0v1.65c0,.56,0,1.1,0,1.64v3.12l-.12-.12,10.46.06,3,0,.82,0h.3l-.27,0h-.79l-3,0-10.54.06h-.12v-6.53h0s.23-.24.12-.13l14.62,0h.09v.09c0,2,0,3.59,0,4.73,0,.54,0,1,0,1.27S335.62,162.34,335.62,162.33Z" style="fill:#e0e0e0"></path><path d="M711.48,181.05a.68.68,0,0,1,0-.12v-.33c0-.3,0-.72,0-1.27,0-1.11,0-2.7,0-4.72l.08.08-24.33.05.13-.13h0v1.64c0,.54,0,1.08,0,1.62v3.17l-.12-.12,17.34,0,5.11,0H711l-1.36,0-5.09,0-17.42.06H687v-6.55h0l.12-.12,24.33,0h.07v.07c0,2,0,3.65,0,4.77l0,1.25V181A.82.82,0,0,0,711.48,181.05Z" style="fill:#e0e0e0"></path><path d="M714.78,174.61s0,0,0-.12v-.34q0-.48,0-1.29c0-1.13,0-2.72,0-4.68l.09.09-14.62,0,.12-.12h0v6.41l-.12-.12,10.46.06,3,0,.82,0h.3l-.27,0h-.8l-3,0-10.53.06H700V168.2h0s.23-.24.12-.13l14.62,0h.09v.09c0,2,0,3.59,0,4.73,0,.54,0,1,0,1.27S714.78,174.62,714.78,174.61Z" style="fill:#e0e0e0"></path></g><g id="freepik--Floor--inject-64"><path d="M701,437.27c0,.14-146,.26-325.93.26s-326-.12-326-.26S195,437,375,437,701,437.13,701,437.27Z" style="fill:#263238"></path></g><g id="freepik--Device--inject-64"><path d="M659.56,359.25,551,359.19c-13,0-23.63-10.15-23.63-22.66l.06-260.84C527.44,63.17,538,53,551.09,53l108.55.06c13.05,0,23.63,10.16,23.63,22.67l-.06,260.84C683.21,349.12,672.62,359.26,659.56,359.25Z" style="fill:#455a64"></path><path d="M659.52,62.32l-21,0-61.46,0H551.2c-9.15,0-16.57,7.1-16.57,15.86l-.06,254.6c0,8.76,7.41,15.87,16.55,15.88l108.33.06c9.15,0,16.57-7.1,16.57-15.87l.05-254.6C676.07,69.43,668.67,62.32,659.52,62.32Z" style="fill:#fff"></path><path d="M588.13,272.65a6,6,0,0,1-3.5,1.57v2.26h-2.44V274.3a12.74,12.74,0,0,1-2.89-.51,8.26,8.26,0,0,1-2.25-1l1.32-3a8.65,8.65,0,0,0,2.21,1,8.36,8.36,0,0,0,2.48.38c1.55,0,2.32-.38,2.32-1.15a1,1,0,0,0-.66-.91,13.16,13.16,0,0,0-2.12-.62,21.16,21.16,0,0,1-2.69-.74,4.52,4.52,0,0,1-1.85-1.27,3.46,3.46,0,0,1-.77-2.36,4.06,4.06,0,0,1,1.26-3,6,6,0,0,1,3.64-1.54v-2.23h2.44v2.19a11.46,11.46,0,0,1,2.22.41,8.22,8.22,0,0,1,1.9.79l-1.24,3a8.29,8.29,0,0,0-3.94-1.1,3.29,3.29,0,0,0-1.75.36,1.05,1.05,0,0,0-.54.92.9.9,0,0,0,.65.85,11.36,11.36,0,0,0,2.09.59,18.71,18.71,0,0,1,2.69.75,4.57,4.57,0,0,1,1.85,1.26,3.34,3.34,0,0,1,.78,2.34A4,4,0,0,1,588.13,272.65Z" style="fill:#413838"></path><path d="M604.63,272.65a6,6,0,0,1-3.5,1.57v2.26h-2.44V274.3a12.74,12.74,0,0,1-2.89-.51,8.26,8.26,0,0,1-2.25-1l1.32-3a8.5,8.5,0,0,0,2.21,1,8.36,8.36,0,0,0,2.48.38c1.55,0,2.32-.38,2.32-1.15a1,1,0,0,0-.66-.91,13,13,0,0,0-2.13-.62,21,21,0,0,1-2.68-.74,4.52,4.52,0,0,1-1.85-1.27,3.46,3.46,0,0,1-.77-2.36,4.06,4.06,0,0,1,1.26-3,6,6,0,0,1,3.64-1.54v-2.23h2.44v2.19a11.46,11.46,0,0,1,2.22.41,8.22,8.22,0,0,1,1.9.79l-1.24,3a8.29,8.29,0,0,0-3.94-1.1,3.29,3.29,0,0,0-1.75.36,1.06,1.06,0,0,0-.55.92.92.92,0,0,0,.65.85,11.77,11.77,0,0,0,2.1.59,18.71,18.71,0,0,1,2.69.75,4.57,4.57,0,0,1,1.85,1.26,3.34,3.34,0,0,1,.78,2.34A4,4,0,0,1,604.63,272.65Z" style="fill:#413838"></path><path d="M621.13,272.65a6,6,0,0,1-3.5,1.57v2.26h-2.44V274.3a12.74,12.74,0,0,1-2.89-.51,8.12,8.12,0,0,1-2.25-1l1.32-3a8.5,8.5,0,0,0,2.21,1,8.36,8.36,0,0,0,2.48.38c1.55,0,2.32-.38,2.32-1.15a1,1,0,0,0-.66-.91,13,13,0,0,0-2.13-.62,21,21,0,0,1-2.68-.74,4.52,4.52,0,0,1-1.85-1.27,3.46,3.46,0,0,1-.77-2.36,4.06,4.06,0,0,1,1.26-3,6,6,0,0,1,3.64-1.54v-2.23h2.44v2.19a11.46,11.46,0,0,1,2.22.41,8.4,8.4,0,0,1,1.9.79l-1.24,3a8.29,8.29,0,0,0-3.94-1.1,3.29,3.29,0,0,0-1.75.36,1.06,1.06,0,0,0-.55.92.92.92,0,0,0,.65.85,11.52,11.52,0,0,0,2.1.59,18.71,18.71,0,0,1,2.69.75,4.57,4.57,0,0,1,1.85,1.26,3.34,3.34,0,0,1,.78,2.34A4,4,0,0,1,621.13,272.65Z" style="fill:#413838"></path><path d="M637.63,272.65a6,6,0,0,1-3.51,1.57v2.26h-2.44V274.3a12.76,12.76,0,0,1-2.88-.51,8.34,8.34,0,0,1-2.26-1l1.32-3a8.72,8.72,0,0,0,2.22,1,8.36,8.36,0,0,0,2.48.38c1.54,0,2.31-.38,2.31-1.15a1,1,0,0,0-.66-.91,12.85,12.85,0,0,0-2.12-.62,21,21,0,0,1-2.68-.74,4.46,4.46,0,0,1-1.85-1.27,3.41,3.41,0,0,1-.77-2.36,4.06,4.06,0,0,1,1.26-3,6,6,0,0,1,3.63-1.54v-2.23h2.44v2.19a11.42,11.42,0,0,1,2.23.41,8.4,8.4,0,0,1,1.9.79l-1.24,3a8.32,8.32,0,0,0-3.94-1.1,3.27,3.27,0,0,0-1.75.36,1,1,0,0,0-.55.92.92.92,0,0,0,.65.85,11.36,11.36,0,0,0,2.09.59,18.89,18.89,0,0,1,2.7.75,4.53,4.53,0,0,1,1.84,1.26,3.3,3.3,0,0,1,.79,2.34A4,4,0,0,1,637.63,272.65Z" style="fill:#413838"></path><rect x="559.82" y="158.55" width="92.41" height="12.56" style="fill:#e0e0e0"></rect><g style="opacity:0.4"><rect x="559.82" y="158.55" width="92.41" height="12.56"></rect></g><path d="M657.57,157.81c-2.63-1.63-9.44-4.18-11.33-4.39-1.15-.13-6.25-.84-6.25-.84l-1.65-.13s-17.57-8.71-20.36-9.79c-4.33-1.67-13.48-3.13-23.18-1.93,0,0-13,1.19-15.84,2s-16.81,5.18-16.81,5.18-6.11.64-6,.88a1.93,1.93,0,0,0,.59.88v3.9a9.79,9.79,0,0,0-.85,1.36c-.17.44-.55,3.91-.55,3.91s-1.82,4.35-1.82,5.49,3.3,5.53,4.11,6.19,7.3,1.62,7.3,1.62v-3.29a8.85,8.85,0,1,1,17.7,0l0,4.26h50.7l0-3.16c0-.25,0-.5,0-.76a8.87,8.87,0,1,1,17.71,0c0,.26,0,.51,0,.76h.18v3.16H657s4.74-3.65,4.61-5.49v-5.19a2.79,2.79,0,0,0-.7-1.86A15.25,15.25,0,0,0,657.57,157.81Z" style="fill:#e0e0e0"></path><g style="opacity:0.2"><path d="M661.59,164l-3.74-1.38-.44,2.11-6-.33s-2.63-5.21-8-5.66a14.36,14.36,0,0,0-8.26,2L608.87,158s-13.34-.53-18.49-.46-9.68,3.94-9.68,3.94-1.52-2.28-6.9-2.33-7.62,3.22-7.62,3.22a21.75,21.75,0,0,1-10.5-4.48l-.26.21c0,.47-.09.8-.09.8s-1.82,4.35-1.82,5.49,3.3,5.53,4.11,6.19,7.3,1.62,7.3,1.62v-3.29a8.85,8.85,0,1,1,17.7,0l0,4.26h50.7l0-3.16c0-.25,0-.5,0-.76a8.87,8.87,0,1,1,17.71,0c0,.26,0,.51,0,.76h.18v3.16H657s4.74-3.65,4.61-5.49V164Z"></path></g><path d="M571.38,148.21a.65.65,0,0,0,.28,1.15l4.46.62,25.32,2.89,30.87,1.78a1.43,1.43,0,0,0,1.26-.62,1.2,1.2,0,0,0-.28-1.62c-1.3-1.3-7-4.63-8.38-5.29A45.34,45.34,0,0,0,600,141.39c-4.27.16-12.46,1.42-23,2.86a1.39,1.39,0,0,0-.63.26Z" style="fill:#263238"></path><path d="M576.65,149.51a36,36,0,0,1,2.78-4.93c.45-.26,18.87-2.69,19.12-2.36s.89,9.71.89,9.71Z" style="fill:#455a64"></path><polygon points="583.67 143.9 583.51 150.45 584.46 150.45 584.46 143.79 583.67 143.9" style="fill:#263238"></polygon><path d="M627.94,148.82l0,.1.13.29c0,.14.13.3.2.49s.17.43.26.69a23.35,23.35,0,0,1,1.08,4.69,39,39,0,0,1,.23,7.47c-.08,1.44-.23,3-.47,4.56-.12.8-.26,1.62-.43,2.45a3.54,3.54,0,0,1-.16.62,4.48,4.48,0,0,1-.29.58c-.22.38-.46.74-.71,1.1h0l-20.93-.39-11.42-.27c-1.82,0-3.58-.08-5.29-.09h-1.27a3.24,3.24,0,0,1-1.21-.35,4.25,4.25,0,0,1-1-.74,5.06,5.06,0,0,1-.78-1h0c-1.95-2.78-3.72-5.35-5.26-7.65-.76-1.15-1.48-2.22-2.13-3.23s-1.23-1.94-1.73-2.8a14,14,0,0,1-.66-1.26l-.12-.31c0-.1-.06-.2-.09-.3a1.67,1.67,0,0,1-.08-.3l-.06-.3a4.36,4.36,0,0,1,.13-2,4.15,4.15,0,0,1,.5-1.12,2.23,2.23,0,0,1,.25-.33l-.07.08-.17.26a4.68,4.68,0,0,0-.48,1.11,4.4,4.4,0,0,0-.11,2c0,.09,0,.19,0,.29s0,.19.08.29a1.86,1.86,0,0,0,.1.31l.12.3a10.85,10.85,0,0,0,.66,1.25c.5.86,1.08,1.78,1.74,2.79s1.37,2.08,2.14,3.23c1.54,2.29,3.31,4.86,5.26,7.64h0a4.78,4.78,0,0,0,1.75,1.65,3,3,0,0,0,1.17.34h.63c.21,0,.42,0,.63,0,1.71,0,3.48,0,5.29.08l11.42.27,20.93.41,0,0a11.92,11.92,0,0,0,.71-1.09,3,3,0,0,0,.44-1.17c.18-.83.31-1.64.43-2.44q.36-2.4.48-4.56a39,39,0,0,0-.2-7.45,25.25,25.25,0,0,0-1.05-4.69c-.1-.26-.18-.49-.26-.69s-.14-.36-.2-.49l-.12-.3Z" style="fill:#263238"></path><path d="M601.82,152.89a.5.5,0,0,1,0,.19c0,.12.07.3.11.54.07.48.15,1.17.2,2,.11,1.72.07,4.09,0,6.71s-.09,5-.14,6.7c0,.85,0,1.54-.06,2l0,.55v.15a.12.12,0,0,1,0,.05v-.75l0-2,.11-6.7c0-2.62.09-5,0-6.7-.05-.86-.11-1.55-.17-2,0-.24-.06-.42-.09-.55l0-.14A.18.18,0,0,1,601.82,152.89Z" style="fill:#263238"></path><path d="M602,142l1.89,9.89,20.15,1.49,3.1-4.36s-7.81-4.61-14.66-6S602,142,602,142Z" style="fill:#455a64"></path><g style="opacity:0.2"><path d="M586.19,164.9s9.41,4.1,11.12,4.49,29.29.61,29.29.61l.57-1.28-28.78-.2S586.83,164.05,586.19,164.9Z"></path></g><path d="M580.7,161.44l-.05,0a1.82,1.82,0,0,0-.14-.14,5.35,5.35,0,0,0-.61-.47,7.88,7.88,0,0,0-1-.59,10.47,10.47,0,0,0-1.49-.55,13,13,0,0,0-1.88-.37c-.34-.06-.7-.07-1.06-.1-.19,0-.37,0-.56,0a5.42,5.42,0,0,0-.57,0,11.47,11.47,0,0,0-4.84,1.32,10.29,10.29,0,0,0-1.87,1.24l0,0,0-.05c-.9-1.28-1.74-2.49-2.46-3.61s-1.34-2.13-1.84-3-.88-1.54-1.15-2l-.3-.55-.07-.14,0,0,0,0,.08.14.32.54,1.17,2c.51.85,1.13,1.86,1.86,3s1.56,2.32,2.46,3.6h-.08a10.37,10.37,0,0,1,1.89-1.26,11.35,11.35,0,0,1,4.88-1.32,5.66,5.66,0,0,1,.58,0c.19,0,.38,0,.56,0,.37,0,.73,0,1.07.11a12.1,12.1,0,0,1,1.89.39,9.84,9.84,0,0,1,1.5.57,7.93,7.93,0,0,1,1,.61,5.54,5.54,0,0,1,.59.48l.14.15Z" style="fill:#263238"></path><path d="M556.62,166.66s0-.11-.07-.31-.11-.5-.17-.87c-.14-.72-.3-1.74-.46-2.86s-.28-2.13-.36-2.87c0-.37-.06-.67-.08-.88a1.94,1.94,0,0,1,0-.32,1.19,1.19,0,0,1,0,.32c0,.22.07.52.12.87.09.73.23,1.75.39,2.87s.31,2.13.42,2.86c.06.35.1.64.14.87A1.27,1.27,0,0,1,556.62,166.66Z" style="fill:#263238"></path><path d="M565.1,167.4h-.42l-1.14,0c-1,0-2.28-.11-3.74-.26s-2.78-.34-3.73-.51l-1.12-.2-.3-.07-.11,0h.11l.31,0,1.12.17c.95.15,2.27.33,3.73.48s2.78.24,3.74.29l1.13.06.31,0C565.06,167.39,565.1,167.39,565.1,167.4Z" style="fill:#263238"></path><path d="M657.85,162.57s-1.16-2.79-1.13-2.89c.18-.5.85-1.87.85-1.87a12.86,12.86,0,0,1,1.21.8,16.73,16.73,0,0,1,2.26,2,2.31,2.31,0,0,1,.55,1.5v2.34Z" style="fill:#fff"></path><path d="M632.51,149.62a6.94,6.94,0,0,1-.54.76,7.07,7.07,0,0,1-.57.74,4.58,4.58,0,0,1,1.11-1.5Z" style="fill:#263238"></path><path d="M556.73,149.69s8.82.74,8.73.95-8.73,3-8.73,3Z" style="fill:#413838"></path><path d="M556.7,153.71a40.23,40.23,0,0,1,0-4,19.29,19.29,0,0,1,0,2A16.54,16.54,0,0,1,556.7,153.71Z" style="fill:#263238"></path><path d="M651.44,164.35l-.05-.08-.14-.23c-.12-.2-.31-.5-.58-.87a13.35,13.35,0,0,0-1.06-1.28,10.94,10.94,0,0,0-1.68-1.46,9.2,9.2,0,0,0-2.42-1.26,10,10,0,0,0-3.13-.49,13.19,13.19,0,0,0-3.57.39,11.38,11.38,0,0,0-1.84.62,8.68,8.68,0,0,0-1.77,1v0h0l-13.43-1.38-12.48-1.29-.36,0-.36,0-.71,0-1.39-.06-2.65-.1c-1.71-.06-3.31-.09-4.77-.11-2.91,0-5.27-.05-6.9-.06h0c1.63,0,4,0,6.91,0,1.45,0,3.05,0,4.76.1l2.66.09,1.39.06.71,0,.35,0,.36,0,12.48,1.28,13.44,1.39h0a8.28,8.28,0,0,1,1.79-1,11,11,0,0,1,1.86-.62,13.34,13.34,0,0,1,3.59-.39,10.39,10.39,0,0,1,3.15.51,9.14,9.14,0,0,1,2.43,1.28,10.52,10.52,0,0,1,1.68,1.48,14.66,14.66,0,0,1,1.06,1.29c.26.38.45.67.57.88Z" style="fill:#263238"></path><path d="M626.6,170H625l-4.36-.08-14.37-.28-7.92-.17h-.45a2.38,2.38,0,0,1-1.3-.31l-1.55-.63-2.82-1.09c-1.73-.66-3.13-1.2-4.08-1.6l-1.1-.46-.28-.13-.1,0,.1,0,.29.12,1.1.44c1,.38,2.36.92,4.09,1.56.87.33,1.81.68,2.83,1.08l1.56.63a3.06,3.06,0,0,0,.82.28,3.17,3.17,0,0,0,.44,0h.45l7.92.16,14.37.31,4.36.11,1.19,0h.41Z" style="fill:#263238"></path><path d="M624.27,149a6.8,6.8,0,0,0-.72,3.23,1.52,1.52,0,0,0,1.47,1.45l3.63,0a1.08,1.08,0,0,0,1.09-.93,1,1,0,0,0-.1-.57c-.37-.8-.69-.65-.69-.65a8.08,8.08,0,0,0-2.77-3.24A1.4,1.4,0,0,0,624.27,149Z" style="fill:#e0e0e0"></path><path d="M628,153.69a.68.68,0,0,0,.33-.17,1.37,1.37,0,0,0,.53-.74,3.43,3.43,0,0,0,.07-.91,1,1,0,0,0,0-.37.92.92,0,0,0,0,.37,5.53,5.53,0,0,1-.11.88,1.48,1.48,0,0,1-.46.7C628.14,153.6,628,153.67,628,153.69Z" style="fill:#263238"></path><path d="M628.3,151a1.78,1.78,0,0,0-.2-.48,4.86,4.86,0,0,0-.75-1,4.24,4.24,0,0,0-1-.77,1.68,1.68,0,0,0-.47-.21,8.81,8.81,0,0,1,1.37,1.07A9.73,9.73,0,0,1,628.3,151Z" style="fill:#fff"></path><path d="M600.29,141.38s0,0,0,.12l.07.33c.06.29.13.7.22,1.22.18,1,.42,2.47.65,4.06s.4,3,.49,4.08c0,.26,0,.5,0,.71s0,.39,0,.54v.33c0,.08,0,.12,0,.12a.5.5,0,0,1,0-.11l0-.34c0-.15,0-.33,0-.54s0-.44-.07-.7c-.11-1-.29-2.49-.52-4.07s-.45-3-.61-4.06c-.08-.51-.14-.93-.19-1.24l-.05-.33A1.09,1.09,0,0,1,600.29,141.38Z" style="fill:#455a64"></path><g style="opacity:0.2"><path d="M556.73,153.59l4.36-2.68.13-.82a31.7,31.7,0,0,1,4.24.55C565.46,150.77,560.09,152.54,556.73,153.59Z"></path></g><g style="opacity:0.2"><path d="M656.72,159.68l2.33,2,2.54.42v2.34l-3.74-1.92C657.39,161.46,657,160.42,656.72,159.68Z"></path></g><path d="M656.7,159.68a.1.1,0,0,1-.06,0l-.17-.07-.65-.29-2.38-1.05c-1-.44-2.2-1-3.54-1.51-.67-.27-1.38-.56-2.13-.78-.37-.1-.77-.16-1.17-.23l-1.21-.2c-3.3-.52-6.28-1-8.44-1.29l-2.56-.39-.69-.11-.18,0-.06,0h.06l.18,0,.7.09,2.56.35c2.16.31,5.15.74,8.44,1.26l1.22.2c.4.07.8.13,1.18.23.76.23,1.46.52,2.14.79,1.34.56,2.53,1.09,3.53,1.54s1.81.82,2.37,1.08l.64.31.16.08Z" style="fill:#263238"></path><path d="M565.46,169.41a8.26,8.26,0,1,0,8.37-8.43A8.41,8.41,0,0,0,565.46,169.41Z" style="fill:#263238"></path><path d="M565.46,169.39v0a8.26,8.26,0,1,0,16.51.25v0Z" style="fill:#263238"></path><path d="M567.92,169.45a5.8,5.8,0,1,0,5.88-5.92A5.9,5.9,0,0,0,567.92,169.45Z" style="fill:#fafafa"></path><path d="M573.8,163.53a5.89,5.89,0,0,0-5.88,5.92l11.59.17A5.92,5.92,0,0,0,573.8,163.53Z" style="fill:#e0e0e0"></path><path d="M570.18,169.48a3.53,3.53,0,1,0,3.58-3.6A3.61,3.61,0,0,0,570.18,169.48Z" style="fill:#263238"></path><path d="M633.78,169.41a8.26,8.26,0,1,0,8.37-8.43A8.43,8.43,0,0,0,633.78,169.41Z" style="fill:#263238"></path><path d="M633.78,169.39v0a8.26,8.26,0,1,0,16.51.25v0Z" style="fill:#263238"></path><path d="M636.24,169.45a5.8,5.8,0,1,0,5.88-5.92A5.9,5.9,0,0,0,636.24,169.45Z" style="fill:#fafafa"></path><path d="M642.12,163.53a5.9,5.9,0,0,0-5.88,5.92l11.59.17A5.91,5.91,0,0,0,642.12,163.53Z" style="fill:#e0e0e0"></path><path d="M638.51,169.48a3.53,3.53,0,1,0,3.58-3.6A3.61,3.61,0,0,0,638.51,169.48Z" style="fill:#263238"></path><path d="M610.86,150.27s1.51-.85,3.41-1.85,3.45-1.78,3.47-1.75-1.52.86-3.42,1.85S610.87,150.3,610.86,150.27Z" style="fill:#fff"></path><path d="M608.73,150.06s1.44-.85,3.24-1.83,3.28-1.76,3.3-1.74-1.44.85-3.25,1.83S608.74,150.08,608.73,150.06Z" style="fill:#fff"></path><path d="M587.44,149.69l.3-.14.83-.34,2.72-1.13,2.71-1.16.82-.35a1.52,1.52,0,0,1,.31-.11l-.29.15L594,147c-.69.31-1.64.74-2.7,1.19s-2,.83-2.74,1.09l-.83.31A1.51,1.51,0,0,1,587.44,149.69Z" style="fill:#fff"></path><path d="M589.41,147.34a18,18,0,0,1,1.77-.88,17.24,17.24,0,0,1,1.81-.78s-.78.42-1.77.88A17.24,17.24,0,0,1,589.41,147.34Z" style="fill:#fff"></path><path d="M661.59,164.49s0-.12,0-.34,0-.54,0-.92,0-.85,0-1.35a2.91,2.91,0,0,0-.75-1.41,7.27,7.27,0,0,0-1.17-1.13c-.39-.32-.75-.59-1.05-.81l-.73-.52-.26-.2.28.16c.18.11.44.28.75.5s.68.48,1.07.79a7.36,7.36,0,0,1,1.19,1.13,4.81,4.81,0,0,1,.5.71,1.66,1.66,0,0,1,.27.77c0,.52,0,1,0,1.36v.92A1.55,1.55,0,0,1,661.59,164.49Z" style="fill:#263238"></path><rect x="562.94" y="103.44" width="89.22" height="9.03" rx="4.4" style="fill:#e0e0e0"></rect><rect x="559.61" y="198.94" width="96.62" height="9.03" rx="4.4" style="fill:#e0e0e0"></rect><rect x="559.61" y="216.02" width="96.62" height="9.03" rx="4.4" style="fill:#e0e0e0"></rect><rect x="559.61" y="233.09" width="96.62" height="9.03" rx="4.4" style="fill:#e0e0e0"></rect><rect x="563.21" y="296.65" width="93.01" height="30.5" rx="3.39" style="fill:#413838"></rect><path d="M592.13,313.65h-1.8v3.12H587V305.05h5.36a6.54,6.54,0,0,1,2.76.53,4.14,4.14,0,0,1,1.81,1.5,4.19,4.19,0,0,1,.63,2.31,4,4,0,0,1-.59,2.21,4,4,0,0,1-1.7,1.48l2.53,3.69h-3.55Zm1.58-5.54a2.3,2.3,0,0,0-1.54-.45h-1.84v3.43h1.84a2.36,2.36,0,0,0,1.54-.44,1.6,1.6,0,0,0,.52-1.26A1.63,1.63,0,0,0,593.71,308.11Z" style="fill:#fff"></path><path d="M608.81,314.21v2.56H599.4V305.05h9.19v2.56h-5.91v2h5.2v2.47h-5.2v2.15Z" style="fill:#fff"></path><path d="M621.8,305.05v11.72h-2.73l-5.18-6.25v6.25h-3.24V305.05h2.73l5.17,6.24v-6.24Z" style="fill:#fff"></path><path d="M626.63,307.68H623v-2.63h10.5v2.63H630v9.09h-3.32Z" style="fill:#fff"></path><path d="M576.49,97.12a4.43,4.43,0,0,1-1.73-1.62,4.78,4.78,0,0,1,0-4.71,4.36,4.36,0,0,1,1.73-1.62,5.15,5.15,0,0,1,2.47-.59,5.42,5.42,0,0,1,2.17.43,4.13,4.13,0,0,1,1.6,1.23l-1.58,1.42a2.61,2.61,0,0,0-2.07-1,2.54,2.54,0,0,0-1.27.31,2.14,2.14,0,0,0-.86.88,2.92,2.92,0,0,0,0,2.62,2.14,2.14,0,0,0,.86.88,2.55,2.55,0,0,0,1.27.32,2.62,2.62,0,0,0,2.07-1l1.58,1.43a4.2,4.2,0,0,1-1.6,1.22,5.26,5.26,0,0,1-2.17.43A5.15,5.15,0,0,1,576.49,97.12Z" style="fill:#413838"></path><path d="M589.55,95.82h-3.7l-.69,1.7h-2.53l3.87-8.76h2.44l3.88,8.76h-2.58ZM588.83,94l-1.13-2.8L586.57,94Z" style="fill:#413838"></path><path d="M597.35,95.2H596v2.32h-2.48V88.76h4a5,5,0,0,1,2.06.39A3.11,3.11,0,0,1,601,90.28a3.14,3.14,0,0,1,.47,1.72,2.91,2.91,0,0,1-1.71,2.77l1.89,2.75h-2.66Zm1.18-4.15a1.73,1.73,0,0,0-1.15-.34H596v2.57h1.38a1.73,1.73,0,0,0,1.15-.33,1.18,1.18,0,0,0,.39-1A1.19,1.19,0,0,0,598.53,91.05Z" style="fill:#413838"></path><path d="M613,97.52l-2-2.81c-.22,0-.46,0-.7,0h-2.35v2.78H607V88.76h3.28a4,4,0,0,1,2.63.8,2.72,2.72,0,0,1,1,2.21,2.82,2.82,0,0,1-.52,1.73,2.87,2.87,0,0,1-1.48,1l2.14,3Zm-.74-4.14a2,2,0,0,0,.69-1.61,2,2,0,0,0-.69-1.64,3,3,0,0,0-2-.57h-2.33V94h2.33A3,3,0,0,0,612.23,93.38Z" style="fill:#413838"></path><path d="M622.23,96.72v.8H616V88.76h6v.8H617v3.12h4.53v.79H617v3.25Z" style="fill:#413838"></path><path d="M631.74,88.76v8.76H631l-5.63-7.11v7.11h-.93V88.76h.77l5.64,7.11V88.76Z" style="fill:#413838"></path><path d="M636.3,89.56h-3.09v-.8h7.09v.8h-3.08v8h-.92Z" style="fill:#413838"></path></g><g id="freepik--Car--inject-64"><rect x="71.07" y="343.03" width="503.33" height="68.39" style="fill:#e0e0e0"></rect><g style="opacity:0.4"><rect x="71.07" y="343.03" width="503.33" height="68.39"></rect></g><path d="M603.44,339c-14.3-8.85-51.41-22.73-61.71-23.91-6.24-.72-34-4.54-34-4.54l-9-.72S403,262.37,387.8,256.49c-23.57-9.12-73.39-17-126.21-10.52,0,0-70.58,6.46-86.27,11s-91.57,28.21-91.57,28.21S50.48,288.69,51,290c0,0,.46,2.15,3.23,4.78V316s-3.69,5-4.61,7.41-3,21.28-3,21.28-10,23.67-10,29.88,18,30.13,22.4,33.72,39.79,8.81,39.79,8.81l-.06-17.9c.93-27.25,22.15-49.05,48.2-49.05s47.27,21.8,48.21,49.05l.1,23.19H471.43l-.19-17.21c-.1-1.36-.17-2.73-.17-4.12,0-28.12,21.61-50.91,48.25-50.91s48.25,22.79,48.25,50.91c0,1.39-.06,2.76-.17,4.12h1v17.21h31.83s25.84-19.84,25.15-29.88V364.25a15.22,15.22,0,0,0-3.83-10.13A84,84,0,0,0,603.44,339Z" style="fill:#e0e0e0"></path><g style="opacity:0.2"><path d="M625.36,372.45,605,364.92l-2.42,11.48L570,374.61s-14.32-28.35-43.6-30.85c-25.07-2.13-45,10.79-45,10.79L338.21,339.82s-72.66-2.87-100.69-2.51-52.73,21.47-52.73,21.47-8.27-12.44-37.58-12.72-41.54,17.56-41.54,17.56a118.23,118.23,0,0,1-57.14-24.43l-1.42,1.18c-.3,2.55-.5,4.35-.5,4.35s-10,23.67-10,29.88,18,30.13,22.4,33.72,39.79,8.81,39.79,8.81l-.06-17.9c.93-27.25,22.15-49.05,48.2-49.05s47.27,21.8,48.21,49.05l.1,23.19H471.43l-.19-17.21c-.1-1.36-.17-2.73-.17-4.12,0-28.12,21.61-50.91,48.25-50.91s48.25,22.79,48.25,50.91c0,1.39-.06,2.76-.17,4.12h1v17.21h31.83s25.84-19.84,25.15-29.88V372.45Z"></path></g><path d="M134,286.73a3.5,3.5,0,0,0,1.51,6.25l24.27,3.36,137.91,15.75,168.15,9.67a7.6,7.6,0,0,0,6.88-3.37c1.43-2.22,2-5.31-1.56-8.83-7.06-7-38.28-25.2-45.61-28.78s-58.76-35.56-135.53-31.19c-23.24.83-67.83,7.71-125.46,15.54a7.45,7.45,0,0,0-3.43,1.4Z" style="fill:#263238"></path><path d="M162.7,293.76c.35-1.07,12.76-25.37,15.17-26.8S280.63,252.31,282,254.09s4.82,52.9,4.82,52.9Z" style="fill:#455a64"></path><polygon points="200.94 263.24 200.07 298.91 205.24 298.91 205.24 262.65 200.94 263.24" style="fill:#263238"></polygon><path d="M442.07,290s.09.18.25.54.41.91.72,1.62.72,1.59,1.13,2.67.87,2.33,1.4,3.74a129.79,129.79,0,0,1,5.89,25.52,213.41,213.41,0,0,1,1.23,40.67c-.45,7.85-1.28,16.17-2.56,24.88-.65,4.35-1.39,8.8-2.33,13.32a21.31,21.31,0,0,1-.89,3.4,25.81,25.81,0,0,1-1.57,3.16,68.06,68.06,0,0,1-3.88,5.95l-.08.11h-.13l-114-2.15L265.06,412c-9.89-.2-19.51-.4-28.8-.47-1.16,0-2.31,0-3.46,0s-2.29,0-3.46,0a17.15,17.15,0,0,1-6.58-1.93,23.45,23.45,0,0,1-5.46-4,28.55,28.55,0,0,1-4.24-5.19l0,0c-10.62-15.16-20.22-29.17-28.61-41.67-4.18-6.26-8.09-12.13-11.61-17.62s-6.73-10.56-9.44-15.26a66.2,66.2,0,0,1-3.56-6.84l-.67-1.67c-.22-.55-.34-1.12-.51-1.67s-.35-1.08-.44-1.62-.2-1.08-.29-1.61a24,24,0,0,1,.69-10.72,23.71,23.71,0,0,1,2.72-6.06,14.06,14.06,0,0,1,1.34-1.84l-.34.47c-.22.31-.54.77-.93,1.41a24.69,24.69,0,0,0-3.26,16.71c.1.51.2,1,.3,1.58s.3,1.06.44,1.61.3,1.11.52,1.65l.67,1.65a65,65,0,0,0,3.58,6.79c2.72,4.68,5.93,9.74,9.48,15.21s7.45,11.33,11.65,17.58c8.42,12.48,18,26.47,28.68,41.61h0v0a26,26,0,0,0,9.5,9,16.49,16.49,0,0,0,6.38,1.85c1.11.06,2.25.06,3.41,0s2.31,0,3.48,0c9.29.06,18.91.25,28.8.45l62.21,1.45,114,2.23-.21.11a69.3,69.3,0,0,0,3.85-5.9,25.48,25.48,0,0,0,1.55-3.09,22.33,22.33,0,0,0,.87-3.31c.94-4.5,1.69-8.94,2.35-13.29,1.29-8.68,2.13-17,2.6-24.82a215.51,215.51,0,0,0-1.11-40.61,131.77,131.77,0,0,0-5.74-25.5c-.51-1.42-1-2.67-1.37-3.76s-.8-1.95-1.09-2.68l-.67-1.63C442.14,290.21,442.07,290,442.07,290Z" style="fill:#263238"></path><path d="M299.82,312.21a5.59,5.59,0,0,1,.29,1c.15.67.35,1.67.55,3,.41,2.58.84,6.35,1.12,11,.6,9.34.36,22.26.18,36.51s-.52,27.17-.78,36.51c-.14,4.62-.25,8.39-.34,11.06q-.07,1.89-.12,3c0,.31,0,.57-.05.78a.14.14,0,1,1-.06,0c0-.21,0-.47,0-.78,0-.74,0-1.75,0-3,0-2.67.09-6.43.15-11.06.16-9.39.37-22.28.6-36.51s.49-27.16,0-36.48c-.22-4.66-.58-8.42-.92-11-.17-1.29-.33-2.29-.45-3-.05-.31-.1-.56-.14-.77A.89.89,0,0,1,299.82,312.21Z" style="fill:#263238"></path><path d="M301,253.08,311.25,307,421,315.07l16.9-23.76S395.36,266.25,358,258.69C320.12,251,301,253.08,301,253.08Z" style="fill:#455a64"></path><g style="opacity:0.2"><path d="M214.69,377.62s51.25,22.34,60.57,24.44,159.5,3.31,159.5,3.31l3.11-6.95-156.75-1.07S218.15,373,214.69,377.62Z"></path></g><path d="M184.79,358.78a2,2,0,0,1-.27-.25c-.17-.18-.44-.42-.79-.75a36.72,36.72,0,0,0-3.3-2.55,46.09,46.09,0,0,0-5.72-3.21,58.9,58.9,0,0,0-8.11-3A68.77,68.77,0,0,0,156.35,347c-1.86-.3-3.8-.38-5.79-.55-1-.09-2-.05-3-.08s-2.07-.07-3.13,0a62.14,62.14,0,0,0-26.32,7.2,55.45,55.45,0,0,0-10.18,6.77l-.24.21-.18-.26c-4.89-7-9.44-13.61-13.38-19.68s-7.28-11.61-10-16.26-4.82-8.43-6.27-11c-.69-1.28-1.24-2.28-1.63-3l-.42-.78a1.1,1.1,0,0,1-.12-.28,1.8,1.8,0,0,1,.17.25l.46.75L78,313.23l6.41,10.93c2.76,4.63,6.12,10.13,10.09,16.17S103,353,107.93,360l-.42,0a55.78,55.78,0,0,1,10.3-6.86,62.27,62.27,0,0,1,26.56-7.22c1.06-.1,2.12,0,3.15,0s2.06,0,3.07.1c2,.18,3.95.27,5.82.58a67.62,67.62,0,0,1,10.3,2.14,56,56,0,0,1,8.14,3.09,43.9,43.9,0,0,1,5.71,3.32,30.07,30.07,0,0,1,3.25,2.65c.34.34.6.6.75.79A1.29,1.29,0,0,1,184.79,358.78Z" style="fill:#263238"></path><path d="M53.64,387.19a9.63,9.63,0,0,1-.42-1.7c-.23-1.11-.55-2.71-.91-4.7-.73-4-1.63-9.47-2.5-15.57s-1.53-11.65-1.94-15.67c-.21-2-.35-3.64-.43-4.76a9.36,9.36,0,0,1-.07-1.76,10,10,0,0,1,.29,1.73l.62,4.74c.52,4,1.24,9.53,2.11,15.63s1.71,11.6,2.33,15.59c.29,1.91.54,3.5.72,4.72A9.66,9.66,0,0,1,53.64,387.19Z" style="fill:#263238"></path><path d="M99.81,391.2a2.44,2.44,0,0,1-.59,0H97.54c-1.47,0-3.59,0-6.2-.13-5.23-.18-12.46-.61-20.41-1.43s-15.12-1.87-20.29-2.76c-2.58-.44-4.66-.83-6.1-1.12l-1.65-.36a2.53,2.53,0,0,1-.57-.16,2,2,0,0,1,.59,0l1.67.24,6.13.94c5.17.78,12.34,1.76,20.28,2.58s15.14,1.31,20.37,1.6l6.18.33,1.69.1A2.1,2.1,0,0,1,99.81,391.2Z" style="fill:#263238"></path><path d="M605,364.92s-6.34-15.22-6.16-15.73c1-2.73,4.62-10.21,4.62-10.21a73,73,0,0,1,6.6,4.39,84.53,84.53,0,0,1,12.28,11.08,12.41,12.41,0,0,1,3,8.17v12.75Z" style="fill:#fff"></path><path d="M466.94,294.4a35.29,35.29,0,0,1-2.95,4.11,35.46,35.46,0,0,1-3.05,4,16.38,16.38,0,0,1,2.59-4.39A16,16,0,0,1,466.94,294.4Z" style="fill:#263238"></path><path d="M54.22,294.75s48.06,4.08,47.53,5.17S54.22,316,54.22,316Z" style="fill:#413838"></path><path d="M54.07,316.64a102.73,102.73,0,0,1-.29-10.9c0-6,.12-10.9.29-10.9a102.73,102.73,0,0,1,.29,10.9A102.73,102.73,0,0,1,54.07,316.64Z" style="fill:#263238"></path><path d="M570,374.61l-.26-.43c-.17-.28-.4-.71-.74-1.26-.66-1.11-1.71-2.7-3.15-4.72a71.21,71.21,0,0,0-5.81-7,60.26,60.26,0,0,0-9.14-8,49.64,49.64,0,0,0-13.17-6.84,55.5,55.5,0,0,0-17-2.7,74,74,0,0,0-19.45,2.15,60,60,0,0,0-10,3.39,44.8,44.8,0,0,0-9.6,5.51l-.1.07h-.1l-73.15-7.49-68-7-1.95-.2-1.94-.1-3.86-.19-7.55-.35-14.46-.54c-9.33-.29-18-.47-26-.59-15.87-.24-28.72-.27-37.6-.32L236.76,338l-2.66,0-.91,0,.91,0,2.66,0,10.22-.06c8.88,0,21.73-.06,37.61.13,7.93.09,16.63.25,26,.52q7,.21,14.47.51l7.56.33,3.86.18,1.95.11,1.95.2,68,7,73.15,7.55-.19.06a45.34,45.34,0,0,1,9.74-5.57,60.17,60.17,0,0,1,10.12-3.39,73.68,73.68,0,0,1,19.58-2.12A55.64,55.64,0,0,1,537.89,346a50,50,0,0,1,13.23,7,58.88,58.88,0,0,1,9.13,8.08,69.17,69.17,0,0,1,5.78,7c1.42,2,2.45,3.65,3.08,4.78S570,374.61,570,374.61Z" style="fill:#263238"></path><path d="M434.76,405.37l-.57,0h-1.68l-6.45-.08-23.74-.39L324,403.37l-43.11-.91-2.47-.06a22.76,22.76,0,0,1-2.46-.12,18.68,18.68,0,0,1-4.59-1.56c-2.9-1.23-5.74-2.37-8.49-3.46-5.5-2.18-10.65-4.15-15.36-5.94-9.4-3.58-17-6.54-22.2-8.69-2.61-1.08-4.62-1.93-6-2.53l-1.54-.69-.52-.25.54.19,1.57.64,6,2.42c5.23,2.09,12.84,5,22.27,8.5,4.71,1.77,9.87,3.71,15.38,5.88q4.14,1.62,8.52,3.43a17.66,17.66,0,0,0,4.46,1.51,20.85,20.85,0,0,0,2.4.12l2.47,0,43.11.87,78.29,1.71,23.73.59,6.45.19,1.68.06C434.57,405.34,434.76,405.37,434.76,405.37Z" style="fill:#263238"></path><path d="M422.07,290.93c-2.07,4.4-4.33,10.89-3.91,17.63a8.22,8.22,0,0,0,8,7.86l19.77.15a5.9,5.9,0,0,0,5.92-5.09,5.6,5.6,0,0,0-.5-3.12c-2.05-4.34-3.77-3.51-3.77-3.51s-6-12.8-15.08-17.66A7.66,7.66,0,0,0,422.07,290.93Z" style="fill:#e0e0e0"></path><path d="M442.53,316.55a3.64,3.64,0,0,0,1.79-.91,7.55,7.55,0,0,0,2.87-4,18.46,18.46,0,0,0,.41-4.95,6.65,6.65,0,0,0-.18-2,6.23,6.23,0,0,0-.31,2,27.1,27.1,0,0,1-.58,4.77,8.19,8.19,0,0,1-2.51,3.83C443.14,316.07,442.48,316.45,442.53,316.55Z" style="fill:#263238"></path><path d="M444,302.14a9,9,0,0,0-1.1-2.65,24.87,24.87,0,0,0-4.08-5.55,24.45,24.45,0,0,0-5.39-4.19,8.36,8.36,0,0,0-2.57-1.12c-.11.21,3.82,2,7.48,5.81S443.83,302.26,444,302.14Z" style="fill:#fff"></path><path d="M291.5,249.51a3,3,0,0,1,.16.63l.37,1.8c.3,1.58.72,3.85,1.2,6.67,1,5.65,2.27,13.45,3.51,22.1s2.19,16.52,2.67,22.23c.13,1.43.22,2.72.28,3.86s.14,2.12.14,2.92,0,1.36,0,1.85a2.63,2.63,0,0,1,0,.64,2.76,2.76,0,0,1-.09-.64c0-.49-.08-1.09-.13-1.84s-.13-1.77-.23-2.9-.21-2.42-.37-3.85c-.59-5.69-1.6-13.53-2.84-22.18s-2.46-16.46-3.33-22.11c-.43-2.77-.77-5-1-6.71-.1-.73-.19-1.34-.25-1.82A2.28,2.28,0,0,1,291.5,249.51Z" style="fill:#455a64"></path><g style="opacity:0.2"><path d="M54.22,316,78,301.41l.69-4.44c9.22.95,20.42,1.85,23.07,2.95C101.76,300.67,72.52,310.27,54.22,316Z"></path></g><g style="opacity:0.2"><path d="M598.82,349.19l12.7,11.18,13.84,2.25v12.75L605,364.92C602.48,358.86,600.19,353.19,598.82,349.19Z"></path></g><path d="M598.68,349.19a1.46,1.46,0,0,1-.32-.12l-.92-.39-3.52-1.56L581,341.39c-5.47-2.4-12-5.25-19.3-8.24-3.66-1.45-7.5-3-11.58-4.24-2.05-.54-4.21-.87-6.38-1.25l-6.63-1.09c-17.93-2.83-34.19-5.23-46-7l-13.92-2.12-3.78-.61-1-.17a1.31,1.31,0,0,1-.34-.08l.34,0,1,.11,3.8.49,13.95,1.94c11.78,1.68,28,4,46,6.84l6.63,1.09c2.18.39,4.34.72,6.43,1.27,4.15,1.24,8,2.83,11.64,4.3,7.31,3,13.81,5.91,19.26,8.36s9.85,4.49,12.87,5.92l3.48,1.66.9.45C598.59,349.12,598.69,349.18,598.68,349.19Z" style="fill:#263238"></path><ellipse cx="146.72" cy="402.86" rx="44.97" ry="46.61" style="fill:#263238"></ellipse><path d="M101.77,402.07s0,.08,0,.12c-.36,25.73,19.48,46.9,44.31,47.27s45.25-20.19,45.61-45.93v-.12Z" style="fill:#263238"></path><path d="M115.16,402.39c-.25,18.07,13.67,32.93,31.11,33.19s31.77-14.18,32-32.25-13.68-32.93-31.11-33.19S115.41,384.32,115.16,402.39Z" style="fill:#fafafa"></path><path d="M147.18,370.14c-17.44-.26-31.77,14.18-32,32.25l63.13.94C178.54,385.26,164.61,370.4,147.18,370.14Z" style="fill:#e0e0e0"></path><path d="M127.49,402.57c-.15,11,8.34,20.06,19,20.22s19.36-8.64,19.51-19.64-8.33-20.06-18.95-20.22S127.65,391.56,127.49,402.57Z" style="fill:#263238"></path><ellipse cx="518.84" cy="402.86" rx="44.97" ry="46.61" style="fill:#263238"></ellipse><path d="M473.89,402.07s0,.08,0,.12c-.36,25.73,19.48,46.9,44.31,47.27s45.25-20.19,45.61-45.93v-.12Z" style="fill:#263238"></path><path d="M487.28,402.39c-.25,18.07,13.67,32.93,31.11,33.19s31.77-14.18,32-32.25-13.68-32.93-31.11-33.19S487.53,384.32,487.28,402.39Z" style="fill:#fafafa"></path><path d="M519.3,370.14c-17.44-.26-31.77,14.18-32,32.25l63.13.94C550.66,385.26,536.73,370.4,519.3,370.14Z" style="fill:#e0e0e0"></path><path d="M499.61,402.57c-.15,11,8.34,20.06,18.95,20.22s19.36-8.64,19.51-19.64-8.33-20.06-19-20.22S499.77,391.56,499.61,402.57Z" style="fill:#263238"></path><path d="M349,297.94c-.07-.15,8.26-4.66,18.6-10.08s18.8-9.69,18.87-9.54-8.25,4.66-18.6,10.08S349.1,298.09,349,297.94Z" style="fill:#fff"></path><path d="M337.43,296.76c-.08-.15,7.83-4.61,17.66-10s17.87-9.58,18-9.43-7.84,4.61-17.67,10S337.5,296.91,337.43,296.76Z" style="fill:#fff"></path><path d="M221.5,294.76a11.09,11.09,0,0,1,1.63-.75l4.49-1.86L242.45,286l14.77-6.31,4.47-1.91a10.38,10.38,0,0,1,1.67-.63,9.34,9.34,0,0,1-1.58.85c-1,.51-2.53,1.22-4.4,2.09-3.73,1.73-8.92,4-14.71,6.47s-11.06,4.53-14.9,6c-1.92.73-3.48,1.3-4.56,1.68A9.76,9.76,0,0,1,221.5,294.76Z" style="fill:#fff"></path><path d="M232.22,282c-.07-.16,4.24-2.31,9.62-4.81a96.7,96.7,0,0,1,9.87-4.26c.07.15-4.24,2.31-9.63,4.81A98.8,98.8,0,0,1,232.22,282Z" style="fill:#fff"></path><path d="M625.37,375.37a11.18,11.18,0,0,1-.12-1.83c0-1.29,0-3-.09-5s0-4.65-.13-7.39-2.18-5.22-4.09-7.69a42.32,42.32,0,0,0-6.36-6.13c-2.12-1.71-4.09-3.18-5.75-4.4l-4-2.85a12.73,12.73,0,0,1-1.43-1.09,9.31,9.31,0,0,1,1.56.89c1,.61,2.37,1.52,4.07,2.7s3.69,2.61,5.84,4.31a40.51,40.51,0,0,1,6.48,6.19,34.56,34.56,0,0,1,2.71,3.82,9.55,9.55,0,0,1,1.47,4.2c.1,2.84,0,5.32,0,7.44s-.07,3.72-.09,5A10.68,10.68,0,0,1,625.37,375.37Z" style="fill:#263238"></path></g><g id="freepik--Locator--inject-64"><path d="M156,185.74a35.93,35.93,0,1,0-66.91,18.15h0l.1.14c1.38,2.32,3.11,4,4.85,6.42l20.86,27.63a6.49,6.49,0,0,0,10.36,0l20.52-27.18a76.9,76.9,0,0,0,5.22-6.91l.07-.1h0A35.72,35.72,0,0,0,156,185.74ZM120,201.38a15.82,15.82,0,1,1,15.82-15.81A15.81,15.81,0,0,1,120,201.38Z" style="fill:#413838"></path></g><g id="freepik--speech-bubble--inject-64"><path d="M464.21,179.24l6.36,1.14a19,19,0,0,0,8.82,5.64A19.28,19.28,0,1,0,467,174.46h0Z" style="fill:#fff"></path><path d="M464.21,179.24l.2-.31c.13-.22.31-.53.55-.92l2.08-3.52h-.11a.07.07,0,0,0,.1,0,.08.08,0,0,0,0-.08,19.47,19.47,0,0,1-1.07-9.28,18.71,18.71,0,0,1,.62-2.91,20.87,20.87,0,0,1,1.17-3,18.9,18.9,0,0,1,4.13-5.62,19.27,19.27,0,0,1,14.8-5.11,19.5,19.5,0,0,1,8.37,2.84,18.85,18.85,0,0,1,6.42,6.67,19.1,19.1,0,0,1-3.8,23.74,19.15,19.15,0,0,1-27.07-1.46s0,0,0,0l-4.72-.79-1.22-.2-.43-.07a3.28,3.28,0,0,0,.39.09l1.2.23,4.75.89,0,0a19.12,19.12,0,0,0,7.83,5.37,19.41,19.41,0,0,0,23.45-27.92l-.62-1c-.23-.34-.47-.65-.71-1a20.7,20.7,0,0,0-1.54-1.83c-.27-.29-.58-.54-.86-.81a10.8,10.8,0,0,0-.89-.78,18,18,0,0,0-1.92-1.35,19.73,19.73,0,0,0-8.52-2.88,19.49,19.49,0,0,0-8.38,1.12,19.35,19.35,0,0,0-10.82,9.83,20.86,20.86,0,0,0-1.17,3,19.36,19.36,0,0,0,.56,12.31l.12-.07h0a.07.07,0,0,0-.1,0l0,0-2,3.6-.51.92Z" style="fill:#263238"></path><polygon points="485.55 175.48 476.1 169.16 478.31 165.86 484.64 170.1 492.52 159.67 495.69 162.06 485.55 175.48" style="fill:#413838"></polygon></g><g id="freepik--character-2--inject-64"><path d="M394.62,239.94a2.16,2.16,0,0,1,1-1.68c9-5.95,15.76-19.13,16.44-30.3,0-.63,0-1.28.06-1.93h0c.52-16,2.87-35.32,5-40.48,3.9-9.53,17.1-10.43,17.1-10.43,17.52-1.25,20.65,12.21,22.42,24.47,1.1,7.63,5.34,34.87,5.34,34.87l-3.22,1.25a39.66,39.66,0,0,1-23.45,24.52c-3.23,1.22-6,1.7-7.25.66a44,44,0,0,1-18.43,11.19,22.88,22.88,0,0,1-8.75,1.16,7,7,0,0,1-5.07-2.35,4.4,4.4,0,0,1,3.77-7C398.92,241.73,394.55,242.37,394.62,239.94Z" style="fill:#263238"></path><path d="M431.75,159.58l1.1-1.05,9.26,3.74c1.71.09,4.56,3.38,4.61,5.1L446.54,205c0,2.62.66,5-.92,7l-1.66,2.2a8.74,8.74,0,0,1-14.6-.92,4.23,4.23,0,0,1-.42-1,6.77,6.77,0,0,1-.18-.87c-.35-3.1-.73-5.27-.73-5.27s.08-5.33.08-5.3-7.26-.84-9.22-10.15c-1-4.63-.79-11-.52-17.28C418.75,164.81,424.77,159.57,431.75,159.58Z" style="fill:#ffbf9d"></path><path d="M433,179.88A1.2,1.2,0,0,0,434.2,181a1.15,1.15,0,0,0,1.19-1.14,1.21,1.21,0,0,0-1.22-1.16A1.15,1.15,0,0,0,433,179.88Z" style="fill:#263238"></path><path d="M420.91,179.88a1.21,1.21,0,0,0,1.22,1.15,1.15,1.15,0,0,0,1.19-1.14,1.21,1.21,0,0,0-1.22-1.16A1.15,1.15,0,0,0,420.91,179.88Z" style="fill:#263238"></path><path d="M419.75,176.47c.16.15,1-.57,2.33-.63s2.28.54,2.41.37-.1-.35-.53-.63a3.33,3.33,0,0,0-1.94-.49,3.15,3.15,0,0,0-1.84.7C419.79,176.11,419.67,176.41,419.75,176.47Z" style="fill:#263238"></path><path d="M432.9,176.61c.17.13,1-.68,2.25-.87s2.32.3,2.44.12-.14-.34-.59-.57a3.24,3.24,0,0,0-2-.29,3.14,3.14,0,0,0-1.77.88C432.91,176.25,432.82,176.55,432.9,176.61Z" style="fill:#263238"></path><path d="M428.37,186a8.55,8.55,0,0,0-2.12-.28c-.33,0-.65-.06-.72-.29a1.69,1.69,0,0,1,.17-1l.86-2.57a43.39,43.39,0,0,0,1.86-6.7,45.07,45.07,0,0,0-2.4,6.54l-.81,2.58a1.92,1.92,0,0,0-.11,1.31.84.84,0,0,0,.57.45,2,2,0,0,0,.57,0A8.44,8.44,0,0,0,428.37,186Z" style="fill:#263238"></path><path d="M428.11,200.9a24,24,0,0,0,12.41-4s-3,6.68-12.45,6.27Z" style="fill:#ff9a6c"></path><path d="M429.08,189.13a2.32,2.32,0,0,1,2.05-1,2.15,2.15,0,0,1,1.51.72,1.36,1.36,0,0,1,.18,1.54,1.56,1.56,0,0,1-1.68.51,4.85,4.85,0,0,1-1.71-.9,1.49,1.49,0,0,1-.38-.37.43.43,0,0,1,0-.48" style="fill:#ff9a6c"></path><path d="M432.23,186.74c-.21,0-.14,1.41-1.3,2.47s-2.66,1-2.66,1.17.35.26,1,.24a3.5,3.5,0,0,0,2.23-.9,3.08,3.08,0,0,0,1-2.06C432.5,187.07,432.33,186.73,432.23,186.74Z" style="fill:#263238"></path><path d="M431.66,171.56c.18.32,1.43,0,3-.09s2.82.18,3-.17c.06-.16-.2-.45-.74-.72a4.94,4.94,0,0,0-2.28-.42,5.06,5.06,0,0,0-2.24.61C431.81,171.08,431.58,171.4,431.66,171.56Z" style="fill:#263238"></path><path d="M419.94,170.9c.24.29,1.12-.06,2.19-.13s2,.1,2.18-.22c.09-.15-.07-.44-.48-.7a3.19,3.19,0,0,0-3.53.29C419.94,170.46,419.83,170.77,419.94,170.9Z" style="fill:#263238"></path><path d="M447.72,183.48s-6.64,2.07-10.4-14.31c-1.28-5.6-6.47-10.14-6.47-10.14l2.1-.63s13.09,3.68,13.31,3.85,3.3,6.77,3.3,6.77Z" style="fill:#263238"></path><path d="M445.13,182.56c0-.69.69-2.38,1.38-2.53,1.83-.38,5.16-.39,5.42,4.29.37,6.4-6.13,5.44-6.15,5.26S445.25,185,445.13,182.56Z" style="fill:#ffbf9d"></path><path d="M447.59,187s.12.07.31.15a1.17,1.17,0,0,0,.84,0,2.76,2.76,0,0,0,1.13-2.55,3.65,3.65,0,0,0-.4-1.58,1.28,1.28,0,0,0-.89-.8.56.56,0,0,0-.64.34c-.07.18,0,.31-.06.32s-.14-.1-.11-.37a.75.75,0,0,1,.23-.41.88.88,0,0,1,.61-.2,1.57,1.57,0,0,1,1.22.93,3.81,3.81,0,0,1,.49,1.76,2.9,2.9,0,0,1-1.47,2.85,1.18,1.18,0,0,1-1-.11C447.61,187.2,447.57,187.06,447.59,187Z" style="fill:#ff9a6c"></path><path d="M452,207.65a1.49,1.49,0,0,0,.07-.31l.16-.91c.14-.82.33-2,.58-3.47l-.16,0c0,.23-.06.49-.1.75v0l-.14.29.16.06a61.19,61.19,0,0,0,2-10.31,62.92,62.92,0,0,0,.4-6.66,30.8,30.8,0,0,0-.64-7.31,11.8,11.8,0,0,0-1.16-2.9,15.25,15.25,0,0,0-1.77-2.46c-1.3-1.51-2.7-2.8-4-4.08l-6.87-6.76L435.92,159l-1.28-1.23-.34-.31a.43.43,0,0,0-.12-.1.43.43,0,0,0,.12.1l.32.34,1.24,1.26,4.58,4.6,6.83,6.81c1.27,1.29,2.67,2.59,3.95,4.07a12.57,12.57,0,0,1,2.87,5.26,30.9,30.9,0,0,1,.63,7.23,65.86,65.86,0,0,1-.36,6.64,64.63,64.63,0,0,1-2,10.28l.16.06c0-.1.09-.2.13-.29h0v0c0-.26.07-.52.1-.75l-.16,0c-.21,1.48-.38,2.66-.5,3.48l-.12.92A1.2,1.2,0,0,0,452,207.65Z" style="fill:#455a64"></path><path d="M456.23,176.62a1.12,1.12,0,0,0-.11-.27l-.38-.75c-.32-.65-.83-1.58-1.51-2.69s-1.52-2.42-2.53-3.82-2.2-2.87-3.52-4.35-2.69-2.81-4-4-2.48-2.14-3.53-2.92-1.9-1.39-2.51-1.78l-.71-.45c-.16-.1-.25-.15-.26-.14a1.79,1.79,0,0,0,.23.18l.67.5c.6.42,1.44,1,2.46,1.85s2.2,1.81,3.46,3,2.6,2.5,3.93,4,2.5,2.95,3.53,4.32,1.88,2.66,2.57,3.77,1.23,2,1.58,2.63l.42.73C456.16,176.54,456.22,176.63,456.23,176.62Z" style="fill:#455a64"></path><path d="M346.5,226.68,340.21,231a2.07,2.07,0,0,0,3,.94,68.91,68.91,0,0,0,6.05-3.35l3,1.21,2.3-2.77-7.41-.47A.9.9,0,0,0,346.5,226.68Z" style="fill:#ff9a6c"></path><path d="M370.92,236.33,355.22,227a.48.48,0,0,0-.24-.06h-1.71l-6.34.86a.37.37,0,0,0-.23.1l-5.9,4.74a.48.48,0,0,0,.15.82,7.26,7.26,0,0,0,2.95.18,14,14,0,0,0,4.49-2.62.42.42,0,0,1,.37-.09l4.18.74a.49.49,0,0,1,.39.44l0,.51a.47.47,0,0,1-.27.45,7.26,7.26,0,0,1-3.95.75,13.18,13.18,0,0,0-3-.3,11.63,11.63,0,0,0-3.24.65,1.1,1.1,0,0,0,.45,1.92c1.88.44,6.65,1.09,7.68,1.4,1.41.43,2,2.07,6,3.33,2,.64,5.27-.29,6.08-.59l3.59,3.6a.46.46,0,0,0,.65-.17l3.75-6.64A.47.47,0,0,0,370.92,236.33Z" style="fill:#ffbf9d"></path><rect x="340.54" y="237.11" width="5.71" height="8.34" rx="1.76" transform="translate(625.57 551.94) rotate(-167.34)" style="fill:#455a64"></rect><path d="M345,233.61c0-.06-.28-.12-.74,0a2.19,2.19,0,0,0-1.52,1,2.45,2.45,0,0,0-.28,1.8c.11.45.29.68.35.66s0-.3,0-.71a2.64,2.64,0,0,1,.35-1.49,2.44,2.44,0,0,1,1.2-.92C344.7,233.75,345,233.69,345,233.61Z" style="fill:#263238"></path><path d="M344.31,237.87c0,.11.62.49,1.5.12a1.22,1.22,0,0,0,.67-.93c0-.29,0-.46-.09-.46s-.22.67-.8,1S344.33,237.73,344.31,237.87Z" style="fill:#263238"></path><path d="M341.45,245.13a1.08,1.08,0,0,1-.23-.26,1.24,1.24,0,0,1-.05-.9c.27-1,.53-2,.81-3.06s.5-2,.75-3.09a.89.89,0,0,1,.51-.7.71.71,0,0,1,.34,0s-.11-.12-.36-.07a1,1,0,0,0-.62.74c-.22.79-.51,1.87-.81,3.08s-.58,2.29-.76,3.09a1.21,1.21,0,0,0,.13,1C341.3,245.11,341.45,245.14,341.45,245.13Z" style="fill:#263238"></path><path d="M342.25,239.59a11.27,11.27,0,0,0,2,.68,12.25,12.25,0,0,0,2.08.49,11.27,11.27,0,0,0-2-.68A12.49,12.49,0,0,0,342.25,239.59Z" style="fill:#263238"></path><path d="M341.66,242.11a10.43,10.43,0,0,0,1.94.66,10.88,10.88,0,0,0,2,.48,11.65,11.65,0,0,0-1.94-.67A10.91,10.91,0,0,0,341.66,242.11Z" style="fill:#263238"></path><path d="M340.93,245a1.18,1.18,0,0,1-.34-1.19C340.75,243,342,238,342,238l-.71-.22L340,243.33S339.79,244.73,340.93,245Z" style="fill:#e0e0e0"></path><path d="M436.18,444.12V445s-15.43,6.37-15.57,9.32l30.77-.46-.57-10.23A17.58,17.58,0,0,1,436.18,444.12Z" style="fill:#263238"></path><path d="M451.38,453.89l-.14-2.46-29.43,1.34s-1.36.61-1.2,1.58Z" style="fill:#455a64"></path><path d="M436.08,445.12c0,.15.76.21,1.5.68s1.15,1.1,1.29,1-.1-.93-1-1.49S436,445,436.08,445.12Z" style="fill:#fff"></path><path d="M432.87,446.5c0,.15.62.39,1.14,1s.68,1.3.83,1.29.23-.86-.43-1.63S432.87,446.36,432.87,446.5Z" style="fill:#fff"></path><path d="M431.09,450.39c.14,0,.34-.72-.06-1.54s-1.1-1.13-1.16-1,.37.56.69,1.24S431,450.38,431.09,450.39Z" style="fill:#fff"></path><path d="M458.18,434.84l-13.1,3.67,3.27,7.42-3.4,18.8a2.13,2.13,0,0,0,1.48,2.44,2.2,2.2,0,0,0,2.21-.63c2.89-3.24,13.46-15.22,13.21-16.69l-.42-3.9c-.09-.81-.87-2.74-.87-2.92Z" style="fill:#263238"></path><path d="M446.82,467.24l14.9-18.75.08.86a2.38,2.38,0,0,1-.6,2c-1.17,1.88-4.5,6.17-12.5,15.22a2.15,2.15,0,0,1-1.88.71Z" style="fill:#455a64"></path><path d="M450.75,458a6.64,6.64,0,0,0-2-1.4,7,7,0,0,0-2.43-.23s.23-.22.71-.34a3.41,3.41,0,0,1,1.88.15,3.3,3.3,0,0,1,1.51,1.11C450.74,457.68,450.8,458,450.75,458Z" style="fill:#fff"></path><path d="M449.52,460.83a17.81,17.81,0,0,0-1.91-.7,18.65,18.65,0,0,0-2.05-.07,2.4,2.4,0,0,1,2.14-.37C449,459.93,449.62,460.77,449.52,460.83Z" style="fill:#fff"></path><path d="M453.18,454.28A20.79,20.79,0,0,0,450.3,453a21.23,21.23,0,0,0-3.13-.41,4.75,4.75,0,0,1,3.26,0A4.66,4.66,0,0,1,453.18,454.28Z" style="fill:#fff"></path><path d="M448.2,443.38a15.19,15.19,0,0,1,.15,2.53h0c-.17,1.09-.39,2.48-.66,4-.31,1.79-.62,3.41-.86,4.57a8.65,8.65,0,0,1-.47,1.87,10.05,10.05,0,0,1,.2-1.92c.17-1.17.43-2.8.75-4.58.26-1.51.52-2.9.74-4v0A13.3,13.3,0,0,1,448.2,443.38Z" style="fill:#455a64"></path><path d="M466.83,322.39c1-5,3.65-14,2.62-18.14-2.39-9.61-6.58-15.17-12.3-27.37H452.9l-40.82-.71-3.34,7.4c-3.71,10-6.24,15.95-7.29,23.25-1.2,8.41.91,20.59,5.58,32.9,10.09,26.56,15.73,47.8,16.11,53.52s1,11.63,6.3,29.75c3.88,13.22,6.74,21.13,6.74,21.13,4,2.27,8.29,2.88,12.17.68l11.84-4.58s-3.63-31.19-7.86-39.46c-3.05-6-8.05-8.79-5.72-16.55S463.66,337.67,466.83,322.39Z" style="fill:#263238"></path><path d="M419.05,297.2s.06.06.17.2l.45.63,1.72,2.46c1.51,2.17,3.71,5.32,6.48,9.31l0,0v0c-.32,3.49-.44,7.54-.65,12s-.45,9.47-.71,14.8-.57,11-.89,17-.66,12.2-1.25,18.62a76.7,76.7,0,0,0-.72,15.62c.12,1.26.27,2.5.51,3.72a24.37,24.37,0,0,0,.88,3.56c.85,2.26,1.83,4.45,2.76,6.58,3.77,8.53,7.29,16.15,10.23,22.56l7,15.16c.82,1.78,1.45,3.17,1.89,4.13.21.46.37.82.49,1.07l.15.37s-.07-.11-.19-.35l-.52-1.06c-.46-.95-1.12-2.33-2-4.1-1.69-3.58-4.11-8.74-7.11-15.11s-6.53-14-10.31-22.52c-.94-2.14-1.92-4.31-2.79-6.61a26.09,26.09,0,0,1-.9-3.61,36,36,0,0,1-.51-3.75,76.54,76.54,0,0,1,.7-15.7c.6-6.39.91-12.64,1.27-18.6s.63-11.66.92-17,.53-10.29.76-14.79.37-8.56.71-12l0,.07-6.38-9.37-1.68-2.49-.42-.65A1.86,1.86,0,0,1,419.05,297.2Z" style="fill:#455a64"></path><path d="M424.49,210l3.47-6.2,7.5,8.41,11.32-9.1,1.93,2.31,4.14,73.27s-14.47,2.91-21.7,1.9a84.87,84.87,0,0,1-15.74-4.32V234.61Z" style="fill:#f5f5f5"></path><path d="M447,213l-.11.13-.32.36c-.29.31-.72.77-1.28,1.32a49.27,49.27,0,0,1-4.89,4.28l-.07.06-.06-.07a55,55,0,0,1-4.48-5.61l-.44-.64h.17l-3.59,4.84a2.58,2.58,0,0,1-.49.5,1,1,0,0,1-.7.19,1.2,1.2,0,0,1-.6-.34c-.16-.16-.28-.33-.41-.48l-1.42-1.78-2-2.57c-.23-.29-.41-.52-.54-.7s-.19-.25-.18-.26l.21.23.57.68,2.09,2.53,1.44,1.75c.26.31.52.69.9.75s.74-.28,1-.63l3.57-4.84.09-.12.09.12.44.64a56.4,56.4,0,0,0,4.45,5.61h-.14a57.51,57.51,0,0,0,4.93-4.21c.57-.54,1-1,1.32-1.28l.34-.34C446.93,213,447,213,447,213Z" style="fill:#263238"></path><g style="opacity:0.30000000000000004"><path d="M429.91,217.62s1.9,2.34,2.43,1.75,3.33-4.93,3.67-5.11,3.73,5.91,5.06,5.48,6.07-5.17,6.07-5.17l.1-1.86L440.32,219l-4.9-6.25-4.13,5.37S430.41,218.8,429.91,217.62Z"></path></g><path d="M433.08,281a5.81,5.81,0,0,1,0-.68c0-.49,0-1.15.06-2,.07-1.75.17-4.21.3-7.23.25-6.11.6-14.55.92-23.87s.56-17.76.73-23.87c.08-3,.15-5.49.2-7.24,0-.82.06-1.47.07-2a4.22,4.22,0,0,1,.06-.69,6.2,6.2,0,0,1,0,.69c0,.49,0,1.14,0,2,0,1.75,0,4.21-.08,7.24-.09,6.11-.28,14.55-.6,23.88s-.72,17.76-1,23.86c-.18,3-.32,5.48-.43,7.23-.05.82-.1,1.47-.14,2A2.79,2.79,0,0,1,433.08,281Z" style="fill:#263238"></path><g style="opacity:0.30000000000000004"><path d="M419.93,251.46Q416,277.21,412.08,303l.61,5.58a2,2,0,0,0,2.76-.25,5.66,5.66,0,0,0,1.08-2.9C419.52,287.59,421.13,269.47,419.93,251.46Z"></path></g><path d="M408.88,210.19c-2.88.9-4.18,2.77-6.08,6.2l-14,27.27s-19.45-9.71-19.49-9.49L362.14,245l22.8,14.11a11.73,11.73,0,0,0,15.75-3.21l7.18-10.16,6-36.55Z" style="fill:#413838"></path><path d="M419.68,208.08l-8.85,1.73-3.09,33,1.13,22.83c0,.59.06.91.06.91l-15.3,34.24c3.41,6.1,12.66,9,19.19,10.52,0,0,6.6-46.81,7-57.12s7.43-49.49,7.43-49.49Z" style="fill:#413838"></path><path d="M395.49,297l.06-.15.18-.45c.18-.4.43-1,.75-1.73l2.8-6.41c2.39-5.44,5.74-13,9.55-21.69v0c-.07-2.33-.16-4.76-.28-7.23-.25-5.58-.56-10.9-.76-15.74s-.33-9.19-.37-12.86,0-6.62,0-8.67c0-1,0-1.81.06-2.36,0-.26,0-.46,0-.61a1.66,1.66,0,0,1,0-.21,1.66,1.66,0,0,1,0,.21v.62c0,.54,0,1.34,0,2.35,0,2,0,5,.05,8.67s.2,8,.42,12.86.5,10.15.78,15.73c.12,2.47.2,4.9.27,7.23v.05l-9.62,21.66-2.85,6.38-.78,1.71-.21.45Z" style="fill:#263238"></path><path d="M419.36,249.1l0-.11c0-.08-.05-.19-.08-.33-.07-.3-.17-.73-.3-1.27-.23-1.1-.55-2.71-.85-4.71s-.6-4.4-.84-7.06-.42-5.61-.56-8.69q-.07-1.73-.15-3.39c0-.55-.05-1.09-.08-1.63l0-.8v-.6a.41.41,0,0,0,0-.11.45.45,0,0,0,0-.08l0,0a.13.13,0,0,1,.11,0c.08,0,.06.05.08.07l-.15,0,2.37-1.65,0,.17-2.58-1.21-.07,0,0-.07c.39-1.47.85-2.77,1.26-3.92s.79-2.14,1.1-3,.58-1.45.76-1.88l.2-.49a1.78,1.78,0,0,1,.08-.16s0,.06-.05.17l-.18.5-.71,1.9c-.3.82-.66,1.82-1.06,3s-.85,2.46-1.22,3.91l0-.1,2.58,1.19.16.07-.14.1-2.37,1.67-.15,0s.07,0,.07,0,0,0,0,0l0,0,0,0h0v.3l0,.39c0,.26,0,.53,0,.8,0,.54.05,1.08.07,1.63.05,1.11.1,2.24.16,3.39.14,3.08.32,6,.54,8.68s.51,5.05.79,7.05.58,3.61.79,4.73c.1.54.19,1,.25,1.27,0,.14,0,.25.06.34S419.37,249.1,419.36,249.1Z" style="fill:#263238"></path><path d="M463.92,270.89l5.64-57-15.88-5.82a40,40,0,0,1-5.8-3.87l-.59,7.63s-2.15,36.59,1.23,55,2.9,17.81,5.37,29.8c1.8,8.72,2.1,16.34,4.81,17.11s16.44-4.25,16.44-4.25Z" style="fill:#413838"></path><path d="M469.56,213.87s4.81,2.36,5.53,9.08c.63,5.92,1.67,42.21,1.55,45.14s-2.66,11.2-7.19,11.49c-7.16.45-9.13-5.07-9.13-5.07L462.24,256Z" style="fill:#413838"></path><path d="M451.35,247.14a.54.54,0,0,1,0-.11l.05-.31.24-1.21c.2-1.06.49-2.58.76-4.48.56-3.79,1-9.06,1.32-14.9.07-1.38.13-2.72.19-4q0-1,.09-1.92c0-.31,0-.62.05-.93l0-.45v-.23s0-.07,0-.1v0s0,0,0,0h0a0,0,0,0,0,.06,0s.07,0,.06,0h0l-.14,0-2.37-1.66-.13-.1.15-.07,2.58-1.19,0,.1a30.45,30.45,0,0,1-.53-3.15c-.12-.93-.24-1.73-.36-2.38s-.27-1.14-.37-1.48l-.12-.38a.93.93,0,0,1,0-.13s0,0,.06.13.09.2.15.37a11.37,11.37,0,0,1,.41,1.47c.14.65.27,1.46.41,2.39a30.47,30.47,0,0,0,.55,3.12l0,.07-.07,0-2.57,1.21v-.17l2.38,1.66-.15,0,0,0a.19.19,0,0,1,.08,0,.11.11,0,0,1,.08,0l0,0,0,0a.25.25,0,0,1,0,.08.49.49,0,0,1,0,.12v.23c0,.15,0,.31,0,.46,0,.31,0,.62,0,.93,0,.63-.05,1.27-.08,1.92-.06,1.3-.12,2.64-.19,4a142.92,142.92,0,0,1-1.39,14.92c-.29,1.89-.6,3.42-.82,4.47-.12.5-.22.91-.28,1.2l-.08.31C451.37,247.11,451.36,247.15,451.35,247.14Z" style="fill:#263238"></path><g style="opacity:0.30000000000000004"><path d="M428,277s-1.09,1.41,1.3,1.84,29.39-1.57,29.39-1.57l5.13,3-.67-2.16-4.28-4.57Z"></path></g><path d="M460.46,232.06l-34,1.73a1.56,1.56,0,0,0-1.48,1.48l-2.26,40.33a1.56,1.56,0,0,0,1.64,1.65l33-1.72a1.56,1.56,0,0,0,1.47-1.44l3.27-40.34A1.56,1.56,0,0,0,460.46,232.06Z" style="fill:#263238"></path><path d="M467.6,223.22l-.06.36c-.05.26-.11.6-.2,1l-.74,3.78c-.62,3.2-1.44,7.62-2.21,12.53s-1.37,9.36-1.76,12.6c-.19,1.6-.35,2.9-.46,3.82-.05.44-.1.79-.13,1a1.93,1.93,0,0,1-.06.37,2.06,2.06,0,0,1,0-.37c0-.26.05-.61.08-1,.08-.91.21-2.22.39-3.84.36-3.24.93-7.7,1.7-12.62s1.62-9.33,2.28-12.52c.33-1.59.6-2.88.81-3.77l.24-1A2.24,2.24,0,0,1,467.6,223.22Z" style="fill:#263238"></path><path d="M461.16,258.47s1.95.11,3.69,3l3.31,2.11s2.9,4.56,0,8.81-6.4.64-6.4.64-3.5,1.74-4.48,1.43a69.29,69.29,0,0,1-8.59-4.69c-.29-.24-2.42-2.69-2.42-2.69s-3-.64-3.3-1.32-.36-2.23,1.63-2.08c0,0-1.94-.58-2.17-1.56s0-2.26,3.45-1.77,10,2.33,10.79,2.14a.48.48,0,0,0-.07-.87c-.25-.11-8-3.13-9.27-3.48s-1.54-3.37,1.25-2.65,11.86,2.89,11.86,2.89Z" style="fill:#ffbf9d"></path><path d="M456,270a12.12,12.12,0,0,1-1.44-.44c-.88-.28-2.1-.67-3.46-1.07s-2.59-.72-3.49-.95a10.8,10.8,0,0,1-1.45-.41,1.51,1.51,0,0,1,.4.05c.26,0,.63.11,1.08.21.91.19,2.16.49,3.52.89s2.58.81,3.46,1.14l1,.4A1.32,1.32,0,0,1,456,270Z" style="fill:#ff9a6c"></path><path d="M457.15,266.4a2.77,2.77,0,0,1-.51,0c-.33,0-.79-.09-1.37-.18-1.16-.17-2.76-.45-4.5-.82s-3.32-.78-4.45-1.1c-.56-.15-1-.29-1.33-.39a2,2,0,0,1-.48-.18,2.33,2.33,0,0,1,.5.1l1.35.32c1.14.28,2.71.66,4.45,1s3.33.68,4.48.89l1.36.25A1.94,1.94,0,0,1,457.15,266.4Z" style="fill:#ff9a6c"></path><path d="M466.58,265.62a1.67,1.67,0,0,1,0,.36,5.44,5.44,0,0,1-.13,1,8.57,8.57,0,0,1-1.23,2.95,8.47,8.47,0,0,1-2.23,2.3,6.23,6.23,0,0,1-.83.5c-.21.1-.32.15-.33.13s.43-.27,1.07-.76a9.42,9.42,0,0,0,2.14-2.29,9.58,9.58,0,0,0,1.26-2.86C466.5,266.12,466.54,265.62,466.58,265.62Z" style="fill:#ff9a6c"></path><path d="M467.67,273.51a14,14,0,0,0,.94-1.33,7.6,7.6,0,0,0,.23-7.48c-.46-.9-.88-1.36-.85-1.39a1.36,1.36,0,0,1,.31.32,5.61,5.61,0,0,1,.68,1,7.34,7.34,0,0,1-.24,7.63,6.78,6.78,0,0,1-.74,1A1.54,1.54,0,0,1,467.67,273.51Z" style="fill:#263238"></path><path d="M475.33,259s-.55-.37-1.51-.84a10.72,10.72,0,0,0-1.75-.67,11.32,11.32,0,0,0-2.24-.4,12.26,12.26,0,0,0-2.29.06,11.87,11.87,0,0,0-1.82.4c-1,.32-1.6.65-1.62.61s.13-.1.4-.25.3-.16.49-.24a5.73,5.73,0,0,1,.68-.26,9.6,9.6,0,0,1,1.85-.46,10.59,10.59,0,0,1,4.61.35,9.86,9.86,0,0,1,1.76.72,5.85,5.85,0,0,1,.63.37,2.92,2.92,0,0,1,.45.31C475.21,258.92,475.34,259,475.33,259Z" style="fill:#263238"></path><g style="opacity:0.30000000000000004"><path d="M453.11,208.78s2.86,6.69,2.46,7.25-1.91.95-1.91.95,2.47,1.07,2.47,2c0,1.88-2.65,13.06-2.65,13.06l.66-13.65-2.37-1.66,2.58-1.2Z"></path></g><path d="M436.52,233.28c-.13.4.29-3.37.29-3.37l16-.7-.46,3.26Z" style="fill:#455a64"></path></g><g id="freepik--character-1--inject-64"><path d="M343.88,250.8c-.7,1.45-1.26,2.7-1.35,2.9l-.77-5.53s-1.66-.12-1.89,2-.61,3.8-.61,3.8l-.86.17-2.1.17-5.81-3.16,1.78,4.54s3.25,1.14,3.51,1.19,9.32-1.41,9.32-1.41c.16.05,2-6.24,2-6.24S344.64,249.22,343.88,250.8Z" style="fill:#6f4439"></path><path d="M228.39,340.52s2.45-22.47,7.71-25,12.56-4.14,14.55-.77a40,40,0,0,1,4.86,13.81,85.31,85.31,0,0,1,.33,13.59l-6-.67s.29-22.4-1.53-25.71-11.06-.65-12.07,3.34S233,341,233,341Z" style="fill:#455a64"></path><path d="M207.5,372.21c.28-9.27,1.17-29.71,1.56-38.7a4.56,4.56,0,0,1,4.59-4.36l55.13.33a4.57,4.57,0,0,1,4.54,4.44L274.39,372a4.56,4.56,0,0,1-4.54,4.69l-57.77.24A4.57,4.57,0,0,1,207.5,372.21Z" style="fill:#455a64"></path><path d="M207.5,372.21a5.29,5.29,0,0,0,.51,2.13,4.65,4.65,0,0,0,1.8,1.9,4.76,4.76,0,0,0,1.58.54,17.46,17.46,0,0,0,1.94,0l23.4-.17,16.15-.1,9,0,4.71,0H269a6,6,0,0,0,2.33-.27,4.36,4.36,0,0,0,2.81-3.5,20.56,20.56,0,0,0,0-2.48c0-.85-.05-1.7-.07-2.55q-.15-5.13-.3-10.46c-.21-7.1-.42-14.45-.63-22a7.92,7.92,0,0,0-.32-2.7,4.37,4.37,0,0,0-1.61-2.06,4.53,4.53,0,0,0-2.5-.75h-2.76l-10.84-.07-20.49-.14-18.55-.13-2.16,0a4.75,4.75,0,0,0-2,.35,4.43,4.43,0,0,0-2.51,2.89,8.9,8.9,0,0,0-.19,1.95c0,.66,0,1.31-.08,2-.06,1.3-.11,2.56-.16,3.79-.43,9.86-.78,17.84-1,23.37-.13,2.75-.23,4.89-.3,6.36q-.06,1.06-.09,1.65c0,.37-.05.56-.05.56s0-.19,0-.56,0-.94,0-1.66c.05-1.47.12-3.61.21-6.35.21-5.54.51-13.52.87-23.38,0-1.24.1-2.5.15-3.79,0-.65,0-1.3.08-2a8.8,8.8,0,0,1,.19-2,4.74,4.74,0,0,1,2.71-3.14,4.81,4.81,0,0,1,2.15-.39h2.16l18.54.09,20.49.11,10.84.06h2.77a4.87,4.87,0,0,1,2.75.84,4.77,4.77,0,0,1,1.79,2.27,4.47,4.47,0,0,1,.3,1.45l0,1.41c.21,7.53.42,14.89.62,22,.1,3.55.19,7,.29,10.46,0,.85,0,1.7.07,2.55a21.69,21.69,0,0,1,0,2.55,4.79,4.79,0,0,1-3.1,3.85,6.62,6.62,0,0,1-2.48.29h-7.1l-9,0-16.16,0-23.4,0a15.68,15.68,0,0,1-2-.06,4.7,4.7,0,0,1-1.63-.58,4.59,4.59,0,0,1-1.82-2,4.38,4.38,0,0,1-.42-1.6A4.07,4.07,0,0,1,207.5,372.21Z" style="fill:#263238"></path><path d="M269.48,343.45s0,.13,0,.41v1.22c0,1.11,0,2.71,0,4.76,0,4.17-.06,10.17-.1,17.59,0,.46,0,.93,0,1.41a2.65,2.65,0,0,1-.33,1.46,2.53,2.53,0,0,1-1.13,1,3.16,3.16,0,0,1-1.54.22h-6.3l-13.91,0-15.37,0-8.13,0h-5.2a4.68,4.68,0,0,1-1.1-.07,2.55,2.55,0,0,1-1.72-1.4,2.61,2.61,0,0,1-.24-.95c0-.33,0-.62,0-.92,0-.61,0-1.21,0-1.81,0-1.2.05-2.39.08-3.58q.08-3.56.15-7c.1-4.6.2-9.06.29-13.31v-.2h.2c15.84,1,29.43,1.23,39.05,1.27,4.8,0,8.62,0,11.24,0l3,0h.76a.87.87,0,0,1,.25,0l-.27,0-.78,0-3,.09c-2.62.06-6.43.12-11.24.13-9.62,0-23.22-.19-39.07-1.12l.21-.19c-.09,4.25-.18,8.71-.27,13.31q-.08,3.46-.15,7c0,1.18-.05,2.38-.08,3.58l0,1.8a3.51,3.51,0,0,0,.18,1.7,2.17,2.17,0,0,0,1.45,1.17,4.56,4.56,0,0,0,1,.06h5.2l8.13,0,15.37.06,13.91.06,6.3,0a3,3,0,0,0,1.41-.2,2.18,2.18,0,0,0,1-.9,2.45,2.45,0,0,0,.29-1.31c0-.48,0-.94,0-1.4.11-7.38.2-13.36.26-17.51,0-2.07.07-3.68.09-4.79,0-.54,0-.95,0-1.25S269.48,343.45,269.48,343.45Z" style="fill:#263238"></path><path d="M253.64,367.91s.34,0,1-.13a4.88,4.88,0,0,0,2.38-1.32,5.05,5.05,0,0,0,1.35-4c0-1.74,0-3.7,0-5.88,0-1.09,0-2.23,0-3.41a4.87,4.87,0,0,0-1-3.37,4.54,4.54,0,0,0-3.28-1.74c-1.34,0-2.76,0-4.19-.05l-18.73-.15a4.56,4.56,0,0,0-4.59,4.37l0,2.36c0,1.57,0,3.11,0,4.61,0,.76,0,1.5,0,2.24s0,1.48,0,2.15a4.55,4.55,0,0,0,2.15,3.27,4.63,4.63,0,0,0,1.81.64c.63.06,1.3,0,1.93.05l7.12.09,10.31.16,2.81.07.73,0a.64.64,0,0,1,.24,0l-.25,0h-3.53l-10.31,0-7.12,0c-.65,0-1.28,0-2-.05a4.84,4.84,0,0,1-2-.68,4.89,4.89,0,0,1-2.33-3.52,18.37,18.37,0,0,1,0-2.22c0-.73,0-1.48,0-2.23,0-1.51,0-3.05,0-4.61l0-2.38a4.82,4.82,0,0,1,.71-2.38,5,5,0,0,1,4.29-2.38l18.72.18c1.45,0,2.83,0,4.22.07a4.85,4.85,0,0,1,3.52,1.89,5.17,5.17,0,0,1,1,3.58c0,1.19,0,2.33-.05,3.42,0,2.17-.06,4.14-.08,5.87,0,.43,0,.85-.05,1.26a4.62,4.62,0,0,1-.29,1.15,4.78,4.78,0,0,1-3.61,3A3.64,3.64,0,0,1,253.64,367.91Z" style="fill:#263238"></path><g style="opacity:0.30000000000000004"><path d="M216.12,371.21a88.08,88.08,0,0,0,50.48.11Z"></path></g><rect x="239.03" y="350.01" width="10.2" height="3.69" rx="1.6" transform="translate(3.22 -2.21) rotate(0.52)" style="fill:#e0e0e0"></rect><path d="M247.08,306.2a16,16,0,0,1,2.51,2.8,43.87,43.87,0,0,1,1.8,6.1s-.92.83-2.56-1.79a23.65,23.65,0,0,1-2.13-3.93Z" style="fill:#ffbf9d"></path><path d="M239,296.36l2.19,3.86,6,6.09,2.27,9a4,4,0,0,1-.31,2.84,1.42,1.42,0,0,1-.61.68c-.67.28-2.58-.7-2.58-.7s-1.39,1.73-2.88.71c0,0-2.14,1.1-3.33,0,0,0-1.36,1.08-2.37.41s-3.91-4.9-3.91-4.9l-3.89-13.93Z" style="fill:#ffbf9d"></path><path d="M323.58,259.21l13.91,1.37s11.55-4.25,12.86-4.8a1,1,0,0,0,.61-.62,1.31,1.31,0,0,0-1.47-1.68l-12.94,1.89a2.74,2.74,0,0,1-2.14-.68l-4.49-4.05s2.47-1.58,4.09-2.86a2.48,2.48,0,0,0,.94-2.87c-1.69-.09-11.21,4.4-11.21,4.4l-4,2Z" style="fill:#ae7461"></path><path d="M275.62,151.41a4.06,4.06,0,0,0,1.54-7.93,4.22,4.22,0,0,0-3.84-7,5.05,5.05,0,0,0-7.71-4,5.69,5.69,0,0,0-7,0,4,4,0,0,0-3.41,6.93" style="fill:#263238"></path><path d="M276.22,152a17.22,17.22,0,0,0-17.5-15.46l-.89,0c-9.6.77-14.31,9.35-13.27,18.92l.86,34.28h0l16.51,17.83,7-11.4-.07-11.37s9.21-1.64,9.12-10.88C277.9,169.44,277.07,160.26,276.22,152Z" style="fill:#ae7461"></path><path d="M268.89,184.76a22.29,22.29,0,0,1-12.17-3.28s2.85,6.77,12,5.74Z" style="fill:#6f4439"></path><path d="M274,160.41a1.32,1.32,0,0,1-1.25,1.36,1.25,1.25,0,0,1-1.38-1.16,1.32,1.32,0,0,1,1.24-1.36A1.27,1.27,0,0,1,274,160.41Z" style="fill:#263238"></path><path d="M274.33,156.52c-.16.18-1.17-.54-2.59-.51s-2.45.77-2.61.6.09-.39.53-.73a3.66,3.66,0,0,1,2.08-.69,3.51,3.51,0,0,1,2.07.62C274.26,156.14,274.41,156.44,274.33,156.52Z" style="fill:#263238"></path><path d="M261.06,161a1.32,1.32,0,0,1-1.25,1.35,1.25,1.25,0,0,1-1.38-1.16,1.32,1.32,0,0,1,1.24-1.36A1.28,1.28,0,0,1,261.06,161Z" style="fill:#263238"></path><path d="M260.38,157.09c-.16.17-1.17-.54-2.59-.51s-2.44.77-2.6.6.08-.39.53-.73a3.56,3.56,0,0,1,2.08-.69,3.36,3.36,0,0,1,2.06.62C260.31,156.7,260.46,157,260.38,157.09Z" style="fill:#263238"></path><path d="M265.76,167.5a9.38,9.38,0,0,1,2.3-.46c.36,0,.7-.13.76-.38a1.78,1.78,0,0,0-.27-1.06c-.36-.87-.73-1.79-1.13-2.74-1.57-3.9-2.72-7.11-2.56-7.17s1.56,3.05,3.13,6.95l1.09,2.75a2.16,2.16,0,0,1,.22,1.42.93.93,0,0,1-.59.54,2.09,2.09,0,0,1-.61.1A9.08,9.08,0,0,1,265.76,167.5Z" style="fill:#263238"></path><path d="M260.71,152.25c-.18.36-1.4,0-2.9,0s-2.76.26-2.9-.11c-.06-.18.19-.51.73-.81a4.49,4.49,0,0,1,2.24-.52,4.37,4.37,0,0,1,2.18.62C260.56,151.73,260.79,152.07,260.71,152.25Z" style="fill:#263238"></path><path d="M274.39,151.49c-.29.33-1.47,0-2.88,0s-2.59.27-2.87-.06c-.13-.16.05-.49.57-.81a4.56,4.56,0,0,1,2.33-.57,4.46,4.46,0,0,1,2.31.6C274.35,151,274.52,151.33,274.39,151.49Z" style="fill:#263238"></path><path d="M246.24,164.4a2.52,2.52,0,0,0-2.76-2.36c-1.72.2-3.62,1.22-3.43,4.78.34,6.31,6.6,4.67,6.61,4.49S246.4,167,246.24,164.4Z" style="fill:#ae7461"></path><path d="M245.16,169s-.11.08-.29.18a1.15,1.15,0,0,1-.82.06,2.73,2.73,0,0,1-1.39-2.38,3.6,3.6,0,0,1,.22-1.59,1.25,1.25,0,0,1,.78-.88.57.57,0,0,1,.67.26c.09.17.06.3.09.31s.13-.11.07-.37a.71.71,0,0,0-.27-.38.8.8,0,0,0-.62-.13,1.53,1.53,0,0,0-1.09,1,3.7,3.7,0,0,0-.29,1.78,2.86,2.86,0,0,0,1.75,2.64,1.2,1.2,0,0,0,1-.22C245.15,169.16,245.18,169,245.16,169Z" style="fill:#6f4439"></path><path d="M270.69,138.94a2.38,2.38,0,0,0-.23-.45,4.09,4.09,0,0,0-3.18-1.72,14.79,14.79,0,0,0-2.24-.88,5.5,5.5,0,0,0-9.34-.2l-.78.15a5.61,5.61,0,0,0-8.48,2.6,4.08,4.08,0,0,0-4.47,6,3.85,3.85,0,0,0-2.06,3.13,2.25,2.25,0,0,0,2.33,2.24,86.61,86.61,0,0,0,.47,9.72c.16,2.21,3,3.47,3.23,5,1.15,7.65,3.57,3.36,4.19-12.53.15-.12.31-.26.47-.41.33-.3.4-.68.68-1s1-.3,1.5-.26a4,4,0,0,0,4.13-3,1.68,1.68,0,0,0,2.27.17,8.9,8.9,0,0,0,1.68-1.88,2.62,2.62,0,0,1,2.14-1.13,6.26,6.26,0,0,0,1.38.28c.83-.1,1.22-1.08,1.32-1.9a3.89,3.89,0,0,1,.6-2,4.81,4.81,0,0,1,1.6-.49c.31,0,.63.09.94.13a3.2,3.2,0,0,0,.44,0,5.24,5.24,0,0,1,.58.22c2.82,1.29,5.38,7,5.38,7C275.36,144.08,273.3,141.06,270.69,138.94Z" style="fill:#263238"></path><path d="M241.16,144.82s0,0,.05-.1.11-.14.2-.25a3.54,3.54,0,0,1,1-.73,4,4,0,0,1,1.86-.45,3.68,3.68,0,0,1,2.36.83l-.16.06A5,5,0,0,1,249,141a6.28,6.28,0,0,1,2.25-.74,7.83,7.83,0,0,1,2.5.12,12.81,12.81,0,0,1,4.27,1.9l-.19.06a5.65,5.65,0,0,1,2.79-3.05,5.4,5.4,0,0,1,3.23-.46,5.26,5.26,0,0,1,2,.76,3.22,3.22,0,0,1,.46.34l.15.13a7.42,7.42,0,0,1-.65-.4,5.76,5.76,0,0,0-2-.68,5.33,5.33,0,0,0-5.76,3.45l-.06.14-.13-.08a12.38,12.38,0,0,0-4.19-1.85,7.57,7.57,0,0,0-2.41-.13,6,6,0,0,0-2.16.71,4.79,4.79,0,0,0-2.46,3l0,.17-.13-.11a3.52,3.52,0,0,0-2.23-.82,3.87,3.87,0,0,0-3.08,1.36Z" style="fill:#455a64"></path><path d="M266.35,140.45a1.35,1.35,0,0,1-.1.24,5.4,5.4,0,0,0-.22.74c-.08.32-.15.73-.24,1.21a3.83,3.83,0,0,1-.59,1.56,1.31,1.31,0,0,1-.88.5,5.52,5.52,0,0,1-1.07,0,2.15,2.15,0,0,0-1.07.1,3,3,0,0,0-.91.73c-.27.31-.53.66-.8,1a4.21,4.21,0,0,1-.92,1,2.9,2.9,0,0,1-1.38.49,2.17,2.17,0,0,1-.76,0,1.06,1.06,0,0,1-.69-.45l.23,0a3.62,3.62,0,0,1-.4,1.08,3.79,3.79,0,0,1-.75.91,4.41,4.41,0,0,1-2.19,1,4.86,4.86,0,0,1-1,.06,2.17,2.17,0,0,0-.92,0,1.31,1.31,0,0,0-.66.55,7.33,7.33,0,0,1-.63.73,5,5,0,0,1-3.22,1.59,4.52,4.52,0,0,1-3-1.21,4.61,4.61,0,0,1-1.43-2.37l.11.06a2.51,2.51,0,0,1-2.07-.44,2.42,2.42,0,0,1-.85-1.35,2.47,2.47,0,0,1,0-1,1.48,1.48,0,0,1,.08-.25l0-.08a2.85,2.85,0,0,0,0,1.32,2.27,2.27,0,0,0,.85,1.25,2.33,2.33,0,0,0,1.93.39l.09,0,0,.09a4.56,4.56,0,0,0,1.4,2.25,4.34,4.34,0,0,0,2.84,1.13,4.75,4.75,0,0,0,3.05-1.53,6.71,6.71,0,0,0,.6-.7,1.53,1.53,0,0,1,.79-.64,1.37,1.37,0,0,1,.53-.08l.48,0a5.15,5.15,0,0,0,1-.05,4.25,4.25,0,0,0,2.07-.92,3.34,3.34,0,0,0,1.07-1.84l.06-.29.17.25a1.27,1.27,0,0,0,1.21.37,2.73,2.73,0,0,0,1.26-.45,4.32,4.32,0,0,0,.88-1c.28-.34.53-.69.82-1a3.11,3.11,0,0,1,1-.78,2.25,2.25,0,0,1,1.17-.1,4.62,4.62,0,0,0,1,.06,1.14,1.14,0,0,0,.78-.42,3.7,3.7,0,0,0,.58-1.49c.11-.47.19-.88.28-1.2a4.14,4.14,0,0,1,.27-.74Z" style="fill:#455a64"></path><path d="M261.39,170.08a3.46,3.46,0,0,0,1.41,4.23,2.49,2.49,0,0,0,3.35-1.11,4.42,4.42,0,0,0,.4-2.11C265.1,170.77,262.83,170.41,261.39,170.08Z" style="fill:#6f4439"></path><path d="M265.94,173.63a1.2,1.2,0,0,1-.37.38,2.71,2.71,0,0,1-1.36.5,2.82,2.82,0,0,1-2-.64,3.27,3.27,0,0,1-1.18-2.33,4,4,0,0,1,.14-1.4l0-.11.11,0c1.48.29,2.78.55,3.71.75a10.11,10.11,0,0,1,1.47.37,10.56,10.56,0,0,1-1.5-.2c-.94-.16-2.24-.39-3.73-.67l.15-.09a4.06,4.06,0,0,0-.13,1.31,3.08,3.08,0,0,0,1.08,2.17,2.72,2.72,0,0,0,1.88.64,2.82,2.82,0,0,0,1.31-.4C265.79,173.75,265.92,173.62,265.94,173.63Z" style="fill:#263238"></path><path d="M257.93,424.32,257,444.9s20.62,7.83,20.82,11.65l-40-.31.09-32.13Z" style="fill:#263238"></path><path d="M237.88,456.24,238,453l38.27,1.51s1.77.79,1.56,2Z" style="fill:#455a64"></path><path d="M257.68,444.7c0,.2-1,.28-2,.9s-1.49,1.44-1.66,1.36.12-1.21,1.3-1.94S257.72,444.53,257.68,444.7Z" style="fill:#263238"></path><path d="M261.86,446.47c0,.19-.81.52-1.48,1.34s-.86,1.69-1.06,1.68-.31-1.12.54-2.12S261.85,446.29,261.86,446.47Z" style="fill:#263238"></path><path d="M264.2,451.51c-.18,0-.44-.94.07-2s1.42-1.49,1.5-1.32-.48.73-.89,1.61S264.39,451.49,264.2,451.51Z" style="fill:#263238"></path><path d="M257.36,440c-.08.18-1-.1-2.08,0s-2,.41-2.07.24.74-.86,2-.92S257.46,439.84,257.36,440Z" style="fill:#263238"></path><path d="M257.87,439.76a32.77,32.77,0,0,1,.06,4.95l-.16-.24c2.33.89,5.44,2.08,8.74,3.64a46.71,46.71,0,0,1,8.85,5.1,9.61,9.61,0,0,1,2.2,2.23c.41.64.36,1.13.29,1.11a2.75,2.75,0,0,0-.51-1,10.82,10.82,0,0,0-2.26-2,57.94,57.94,0,0,0-8.86-4.88c-3.27-1.54-6.34-2.79-8.63-3.77l-.17-.07v-.18A33.63,33.63,0,0,1,257.87,439.76Z" style="fill:#263238"></path><path d="M232.08,280.79l-4,23.43,9.78,55s-.77,27.72-2.21,43.49c-1.24,13.7.79,37.54.79,37.54h21.82l7.8-79.53,4.85-49.61,8.79-29.38Z" style="fill:#263238"></path><path d="M270.76,420.75,265,440.54s18.2,12.46,17.5,16.22l-38.77-9.7,7.63-31.21Z" style="fill:#263238"></path><path d="M243.77,447.06l.89-3.12,36.84,10.47s1.54,1.18,1,2.35Z" style="fill:#455a64"></path><path d="M265.72,440.5c-.05.19-1,0-2.11.42s-1.78,1-1.93.92.4-1.14,1.72-1.57S265.8,440.34,265.72,440.5Z" style="fill:#455a64"></path><path d="M269.37,443.2c0,.2-.91.31-1.75.95s-1.24,1.44-1.43,1.39,0-1.16,1-1.93S269.41,443,269.37,443.2Z" style="fill:#455a64"></path><path d="M270.46,448.65c-.18,0-.21-1,.54-1.93s1.73-1.11,1.77-.93-.65.59-1.25,1.36S270.65,448.68,270.46,448.65Z" style="fill:#455a64"></path><path d="M266.52,435.85c-.12.15-.92-.33-2-.52s-2-.07-2.07-.26.92-.66,2.19-.41S266.65,435.72,266.52,435.85Z" style="fill:#263238"></path><path d="M288.14,282.06l1,10.15-.4,71a26.51,26.51,0,0,1-1.19,7.66l-16.89,54.19-4.18,14.35-22.29-4.19,17.18-153.14Z" style="fill:#263238"></path><path d="M287.47,371.14a3.34,3.34,0,0,1-.08.33c-.07.23-.16.56-.29,1-.25.87-.63,2.13-1.12,3.76l-4.28,14.12c-3.69,12.08-8.91,29.16-15,49.16l-.05.16-.17,0-22.29-4-.2,0,0-.19c1.13-5.7,2.32-11.65,3.53-17.72l10-49.74V368l-8.32-49.56v0l-3.72-6.42c-.42-.72-.73-1.28-1-1.66s-.31-.57-.31-.57l.35.55,1,1.64,3.79,6.39h0c1.73,10.06,4.74,27.57,8.52,49.53V368c-3,14.82-6.33,31.78-9.91,49.75-1.22,6.07-2.41,12-3.55,17.72l-.16-.23,22.28,4-.22.13,15.17-49.12,4.39-14.08c.51-1.63.91-2.88,1.18-3.74.14-.42.24-.74.31-1Z" style="fill:#455a64"></path><path d="M216.77,234.92s-3.08,18.22-1.23,25.16,16.85,24.47,16.85,24.47l20.47-12.69-13.49-33.17Z" style="fill:#413838"></path><path d="M228.37,197.92s14.11.43,14.25,13.85-2.51,31.37-2.51,31.37l-24.26-1.71s1.49-25.14,3.44-32.56S228.37,197.92,228.37,197.92Z" style="fill:#413838"></path><path d="M245.16,184.83l.07-2.52s21,5.88,24.13,7.84.74,5.13.74,5.13Z" style="fill:#fff"></path><path d="M286.11,253.41l-7.39-54.87-7.44-4.62h0c-1.37-2.2-3.15-3-5.94-4l-20.08-6.62-1.29,5-17.89,10.81,6.27,59.41-5.71,49.84h10.65l3.93-11.62,1.17,11.62L291.16,307Z" style="fill:#413838"></path><path d="M275.63,196.52s7.34,2.82,9.68,13c.77,3.4,7.29,36.32,7.29,36.32l30.11,2.68,2.52,15.52-33,2.16c-9.13,1.08-18-1.69-20.41-14.8-.06-.32-.16-.63-.23-.94-2.44-11.56-5.71-27.7-6.15-33.22C264.81,209.27,266.62,198.64,275.63,196.52Z" style="fill:#413838"></path><path d="M260.68,262a4.27,4.27,0,0,1-1,.12l-2.66.15c-2.25.1-5.36.2-8.79.26s-6.54.05-8.79,0l-2.67,0a3.94,3.94,0,0,1-1-.08,4,4,0,0,1,1-.11c.63,0,1.54-.08,2.66-.11,2.25-.07,5.36-.11,8.79-.17l8.79-.13h2.66A3.34,3.34,0,0,1,260.68,262Z" style="fill:#263238"></path><path d="M224.54,218.31l.06.2c0,.16.08.36.13.6.12.56.27,1.33.47,2.29.39,2,1,4.92,1.63,8.46,1.35,7.19,3.19,17.06,5.22,27.95l.38,2v.07c-1.24,10.54-2.34,20-3.15,26.86l-1,8.07c-.12.92-.22,1.64-.29,2.18a6,6,0,0,1-.13.76,4.45,4.45,0,0,1,0-.77q.07-.81.21-2.19c.2-1.95.49-4.7.85-8.08.77-6.88,1.82-16.34,3-26.89v.07l-.38-2c-2-10.91-3.78-20.78-5.08-28-.63-3.55-1.13-6.44-1.49-8.48-.16-1-.29-1.75-.38-2.32q-.06-.36-.09-.6C224.53,218.38,224.53,218.31,224.54,218.31Z" style="fill:#263238"></path><path d="M271.61,194.11a4.28,4.28,0,0,1-1.09-.23l-2.93-.76c-2.48-.64-5.91-1.45-9.73-2.23s-7.3-1.39-9.82-1.81l-3-.5a5.82,5.82,0,0,1-1.09-.24,5.47,5.47,0,0,1,1.11,0c.71.07,1.74.19,3,.36,2.53.33,6,.9,9.86,1.68s7.26,1.64,9.72,2.36c1.23.36,2.22.68,2.9.91A5.56,5.56,0,0,1,271.61,194.11Z" style="fill:#263238"></path><path d="M279.13,199.51a24.14,24.14,0,0,0-3.1.09,11.44,11.44,0,0,0-6.51,3.27,12.62,12.62,0,0,0-3.3,6.53,29.48,29.48,0,0,0-.27,3.09,2.34,2.34,0,0,1-.14-.84,10.61,10.61,0,0,1,.08-2.31,12.21,12.21,0,0,1,3.3-6.8,11.13,11.13,0,0,1,6.8-3.27,9.83,9.83,0,0,1,2.31,0A3.23,3.23,0,0,1,279.13,199.51Z" style="fill:#263238"></path><path d="M222.77,204.36a14.39,14.39,0,0,1,1.09,3.42,13.66,13.66,0,0,1,.64,3.54,14.39,14.39,0,0,1-1.09-3.42A13.66,13.66,0,0,1,222.77,204.36Z" style="fill:#263238"></path><path d="M270.14,229.79s0,.14,0,.4,0,.68.06,1.18c.07,1,.2,2.54.45,4.48.49,3.89,1.47,9.48,2.45,16.42l.1.65,0,.17v.07c-.16,0,.36,0-.36.1,0-.06,0,0,0-.07v0c-.32.09.45-.07.36-.07l.06.33c.09.44.18.88.28,1.32a19.27,19.27,0,0,0,.81,2.66,14.34,14.34,0,0,0,3.08,5,12.59,12.59,0,0,0,5.36,3.13,19.35,19.35,0,0,0,6.62.64l30.09-2,5.67-.37-.24.31c-.86-5.36-1.7-10.55-2.51-15.53l.23.21-30.11-2.74h-.14l0-.14c-1.52-7.8-2.75-14.13-3.61-18.55-.41-2.17-.73-3.87-.95-5-.1-.56-.18-1-.23-1.32s-.07-.45-.07-.45a2.88,2.88,0,0,1,.12.44l.29,1.31c.25,1.18.6,2.87,1.06,5,.89,4.4,2.18,10.72,3.77,18.5l-.17-.15,30.11,2.62.19,0,0,.19c.82,5,1.66,10.17,2.54,15.52l0,.28-.28,0-5.68.37-30.09,1.93a19.67,19.67,0,0,1-6.79-.68,13.08,13.08,0,0,1-5.53-3.27,14.66,14.66,0,0,1-3.15-5.12,21.43,21.43,0,0,1-.81-2.71l-.27-1.35-.06-.33c-.09,0,.69-.18.37-.07v0c-.05,0,.11,0-.11,0a1,1,0,0,1-.25,0v-.06l0-.16-.09-.66c-.93-6.94-1.86-12.54-2.29-16.44-.23-1.95-.32-3.48-.35-4.51,0-.52,0-.91,0-1.18A1.79,1.79,0,0,1,270.14,229.79Z" style="fill:#263238"></path></g></svg>
